<?xml version="1.0" standalone="no"?>
<!DOCTYPE svg PUBLIC "-//W3C//DTD SVG 20010904//EN"
 "http://www.w3.org/TR/2001/REC-SVG-20010904/DTD/svg10.dtd">
<svg version="1.0" xmlns="http://www.w3.org/2000/svg"
 width="386.000000pt" height="647.000000pt" viewBox="0 0 386.000000 647.000000"
 preserveAspectRatio="xMidYMid meet">

<g transform="translate(0.000000,647.000000) scale(0.100000,-0.100000)"
fill="#000000" stroke="none">
<path d="M2940 6185 c-18 -19 -38 -32 -43 -28 -5 3 -2 10 7 15 9 5 16 14 16
21 0 6 -18 -7 -40 -28 -47 -46 -53 -70 -14 -55 37 15 47 12 41 -10 -4 -15 0
-20 14 -20 10 0 19 5 19 11 0 6 10 19 23 30 l22 19 -25 -3 c-16 -1 -25 4 -28
16 -3 13 3 17 22 17 18 0 24 4 20 15 -4 9 0 15 9 15 9 0 19 5 22 10 16 25 -35
6 -65 -25z"/>
<path d="M2755 6139 c-5 -5 -30 -26 -55 -47 -63 -53 -110 -105 -110 -122 0
-24 16 -44 24 -31 4 6 2 11 -3 11 -25 0 -7 38 38 83 54 52 66 57 58 27 -3 -11
-1 -20 3 -20 9 0 70 89 70 102 0 11 -12 9 -25 -3z"/>
<path d="M2857 6069 c-10 -6 -24 -9 -31 -6 -6 3 -27 -8 -46 -24 -39 -32 -30
-35 44 -15 34 9 52 19 57 34 9 24 3 27 -24 11z"/>
<path d="M2364 5833 c-33 -36 -48 -63 -34 -63 5 0 10 -5 10 -11 0 -5 -4 -8 -9
-5 -4 3 -6 -7 -3 -22 l5 -27 8 27 c4 14 15 41 24 60 31 58 35 68 30 68 -3 0
-17 -12 -31 -27z"/>
<path d="M2484 5839 c-19 -22 -19 -22 3 -10 24 12 39 31 25 31 -5 0 -17 -10
-28 -21z"/>
<path d="M2261 5639 c-7 -16 -11 -47 -9 -67 5 -38 -26 -107 -42 -97 -12 8 -17
-16 -10 -55 6 -34 6 -34 15 -10 5 14 9 30 9 35 2 25 31 59 74 86 l47 30 -36
-6 c-20 -4 -39 -3 -42 2 -3 4 -1 30 4 57 11 59 8 66 -10 25z"/>
<path d="M2370 5580 c-9 -6 -10 -10 -3 -10 6 0 15 5 18 10 8 12 4 12 -15 0z"/>
<path d="M2732 5528 c-19 -19 -14 -73 7 -92 18 -17 20 -17 30 2 9 16 7 21 -9
25 -12 3 -20 14 -20 26 0 24 17 27 39 7 14 -13 28 -13 91 -3 l75 12 -60 5
c-33 3 -68 2 -77 -2 -9 -5 -20 -4 -23 2 -12 20 -42 29 -53 18z"/>
<path d="M2922 5450 c-7 -11 -8 -20 -3 -20 9 0 24 30 18 36 -1 2 -8 -6 -15
-16z"/>
<path d="M1463 5403 c9 -2 23 -2 30 0 6 3 -1 5 -18 5 -16 0 -22 -2 -12 -5z"/>
<path d="M1547 5404 c-12 -12 4 -24 31 -24 26 1 26 1 8 15 -22 17 -30 18 -39
9z"/>
<path d="M2977 5343 c-14 -35 -26 -43 -46 -35 -13 5 -13 3 2 -12 9 -10 17 -32
17 -52 0 -29 -3 -34 -25 -34 -27 0 -45 24 -38 51 4 15 -1 17 -31 16 -42 -2
-47 -14 -11 -23 25 -6 33 -19 17 -26 -16 -6 -61 -108 -56 -123 4 -8 2 -15 -2
-15 -5 0 -40 -5 -79 -11 -38 -6 -79 -12 -90 -13 -11 -1 -31 -6 -44 -10 -18 -6
-28 -4 -36 7 -10 14 -16 14 -58 -7 -47 -24 -55 -42 -10 -25 13 5 43 9 66 9 23
0 107 9 187 19 176 24 260 26 260 6 0 -11 -8 -13 -29 -9 -31 7 -50 -11 -32
-29 6 -6 11 -14 11 -18 0 -12 -72 -36 -130 -44 -30 -4 -65 -11 -76 -16 -27
-10 -108 -21 -254 -34 -30 -3 -72 -9 -92 -14 -20 -5 -39 -7 -41 -5 -2 3 -56
-2 -118 -10 -63 -8 -134 -16 -159 -17 -25 -2 -48 -7 -51 -11 -3 -5 -50 -11
-104 -14 -79 -5 -102 -10 -114 -25 -9 -10 -45 -25 -81 -33 -36 -8 -94 -21
-130 -29 -58 -13 -67 -13 -82 0 -41 36 -28 93 20 93 15 0 59 9 98 20 63 17
240 52 334 66 19 3 62 12 95 20 34 8 74 16 90 19 79 12 188 35 193 40 9 8 -31
6 -92 -6 -35 -8 -61 -8 -66 -3 -5 5 -11 42 -13 82 -2 40 -7 76 -12 80 -4 4 -5
-34 -1 -84 l7 -92 -83 -8 c-64 -7 -84 -6 -86 4 -4 14 -22 17 -22 3 0 -10 -70
-38 -105 -43 -12 -2 -19 2 -18 9 2 8 -15 4 -45 -11 -56 -29 -169 -63 -232 -70
-25 -3 -72 -12 -105 -19 l-60 -13 -3 -42 c-4 -50 20 -100 52 -108 16 -4 46 5
87 24 61 29 120 42 183 42 38 -1 39 -2 26 -35 -9 -22 -7 -31 6 -46 25 -28 31
-24 32 22 4 85 45 115 174 125 33 2 65 7 71 11 5 3 26 7 46 9 20 2 111 13 202
24 141 18 173 20 210 9 69 -19 70 -19 67 4 -3 19 3 23 47 30 28 5 86 15 130
22 44 8 134 20 200 26 66 6 131 16 145 22 l25 10 -29 8 c-50 14 -60 53 -25 97
l21 27 -59 5 c-32 3 -60 3 -63 0 -19 -20 -130 -43 -130 -27 0 2 7 18 16 36 14
29 19 31 50 25 26 -5 34 -3 34 9 0 8 9 17 21 20 18 5 20 11 14 36 -6 26 -2 35
24 57 22 18 31 35 31 55 0 38 -26 39 -43 2z m33 -18 c0 -8 -7 -15 -15 -15 -16
0 -20 12 -8 23 11 12 23 8 23 -8z m-130 -125 c0 -5 -4 -10 -10 -10 -5 0 -10 5
-10 10 0 6 5 10 10 10 6 0 10 -4 10 -10z m-1396 -461 c-11 -18 -24 -8 -24 19
1 26 1 26 15 8 8 -10 12 -23 9 -27z"/>
<path d="M1627 5335 c4 -20 1 -25 -16 -25 -11 0 -21 -4 -21 -10 0 -13 10 -13
43 3 32 14 33 19 8 41 -18 16 -18 16 -14 -9z"/>
<path d="M2181 5324 c0 -11 3 -14 6 -6 3 7 2 16 -1 19 -3 4 -6 -2 -5 -13z"/>
<path d="M2777 5289 c7 -7 15 -10 18 -7 3 3 -2 9 -12 12 -14 6 -15 5 -6 -5z"/>
<path d="M2172 5260 c0 -19 2 -27 5 -17 2 9 2 25 0 35 -3 9 -5 1 -5 -18z"/>
<path d="M1360 5264 c0 -8 5 -12 10 -9 6 3 10 10 10 16 0 5 -4 9 -10 9 -5 0
-10 -7 -10 -16z"/>
<path d="M1415 5240 c3 -5 8 -10 11 -10 2 0 4 5 4 10 0 6 -5 10 -11 10 -5 0
-7 -4 -4 -10z"/>
<path d="M1365 5221 c-3 -5 4 -13 16 -16 28 -9 36 1 10 14 -12 7 -22 7 -26 2z"/>
<path d="M2160 5200 c0 -5 5 -10 10 -10 6 0 10 5 10 10 0 6 -4 10 -10 10 -5 0
-10 -4 -10 -10z"/>
<path d="M2640 5161 c-47 -44 -52 -51 -40 -66 13 -15 15 -15 29 3 23 27 76 62
96 62 9 0 14 4 10 9 -3 5 -17 7 -32 5 -23 -4 -25 -3 -13 11 30 36 -1 21 -50
-24z m25 -20 c-3 -6 -11 -11 -17 -11 -6 0 -6 6 2 15 14 17 26 13 15 -4z"/>
<path d="M2750 5200 c0 -5 12 -10 28 -9 24 0 25 1 7 9 -27 12 -35 12 -35 0z"/>
<path d="M1433 5133 c-7 -15 -13 -31 -13 -36 0 -6 -6 -15 -14 -21 -7 -6 -16
-28 -19 -49 -5 -33 -4 -37 8 -27 8 7 15 25 15 40 0 37 41 66 71 49 18 -9 20
-8 17 8 -2 12 -11 17 -25 15 -17 -2 -22 3 -25 22 l-3 26 -12 -27z"/>
<path d="M1770 5123 c0 -5 -13 -17 -29 -28 -17 -11 -32 -29 -35 -40 -4 -15 2
-11 24 14 17 18 31 29 31 22 3 -26 4 -30 12 -37 4 -4 7 -18 7 -31 0 -12 4 -23
9 -23 5 0 7 8 4 19 -3 12 3 24 18 35 22 15 22 16 5 29 -14 10 -16 16 -7 21 6
4 9 12 6 17 -7 11 -45 12 -45 2z"/>
<path d="M1853 5106 c7 -14 13 -23 15 -21 7 6 -9 45 -18 45 -4 0 -3 -11 3 -24z"/>
<path d="M1657 5039 c-9 -6 -27 -12 -39 -14 -36 -7 -33 -15 6 -15 21 0 44 6
52 14 25 26 14 34 -19 15z"/>
<path d="M2383 5023 c9 -2 25 -2 35 0 9 3 1 5 -18 5 -19 0 -27 -2 -17 -5z"/>
<path d="M1530 5010 c8 -5 24 -10 34 -10 26 0 18 6 -19 14 -22 5 -26 4 -15 -4z"/>
<path d="M1612 4950 c-7 -11 -21 -20 -32 -20 -20 0 -27 -14 -12 -24 5 -3 24
10 42 29 19 19 30 35 24 35 -5 0 -15 -9 -22 -20z"/>
<path d="M1365 4939 c-4 -6 -5 -12 -2 -15 2 -3 7 2 10 11 7 17 1 20 -8 4z"/>
<path d="M2590 4860 c-9 -6 -10 -10 -3 -10 6 0 15 5 18 10 8 12 4 12 -15 0z"/>
<path d="M2024 4699 c-3 -6 -1 -16 5 -22 8 -8 11 -5 11 11 0 24 -5 28 -16 11z"/>
<path d="M2316 4694 c-11 -30 -6 -37 14 -19 11 10 17 22 14 26 -8 14 -21 11
-28 -7z"/>
<path d="M2310 4619 c0 -5 5 -7 10 -4 6 3 10 8 10 11 0 2 -4 4 -10 4 -5 0 -10
-5 -10 -11z"/>
<path d="M1792 4600 c0 -14 2 -19 5 -12 2 6 2 18 0 25 -3 6 -5 1 -5 -13z"/>
<path d="M2510 4500 c0 -5 5 -10 11 -10 5 0 7 5 4 10 -3 6 -8 10 -11 10 -2 0
-4 -4 -4 -10z"/>
<path d="M2476 4413 c-6 -14 -5 -15 5 -6 7 7 10 15 7 18 -3 3 -9 -2 -12 -12z"/>
<path d="M2501 4304 c0 -11 3 -14 6 -6 3 7 2 16 -1 19 -3 4 -6 -2 -5 -13z"/>
<path d="M2385 4267 c-4 -10 -2 -23 5 -32 21 -25 -4 -214 -36 -277 -8 -16 -11
-28 -6 -28 13 0 38 67 51 136 12 66 13 142 1 189 -6 25 -8 27 -15 12z"/>
<path d="M1910 4243 c0 -6 8 -17 18 -24 16 -13 16 -13 2 6 -8 11 -16 22 -17
24 -2 2 -3 0 -3 -6z"/>
<path d="M2340 4193 c-23 -45 -23 -49 -1 -24 12 13 21 29 21 37 0 21 -5 17
-20 -13z"/>
<path d="M2010 4141 c0 -5 6 -14 14 -20 8 -7 17 -28 21 -49 5 -30 9 -33 16
-20 7 13 3 28 -16 58 -25 39 -35 48 -35 31z"/>
<path d="M2517 4125 c-4 -8 -2 -17 3 -20 6 -4 10 3 10 14 0 25 -6 27 -13 6z"/>
<path d="M2064 4023 c4 -4 16 -8 28 -10 28 -4 18 6 -12 12 -12 2 -20 1 -16 -2z"/>
<path d="M2510 3995 c0 -8 5 -15 10 -15 6 0 10 7 10 15 0 8 -4 15 -10 15 -5 0
-10 -7 -10 -15z"/>
<path d="M2517 3920 c-3 -11 -1 -20 4 -20 5 0 9 9 9 20 0 11 -2 20 -4 20 -2 0
-6 -9 -9 -20z"/>
<path d="M2205 3884 c-20 -9 -22 -12 -7 -8 19 5 34 -6 80 -54 66 -69 97 -89
116 -73 7 6 16 8 19 5 8 -8 66 14 89 34 22 19 34 10 42 -32 5 -26 12 -34 26
-33 17 1 17 3 4 27 -19 34 -50 70 -62 70 -5 0 -16 -9 -23 -20 -11 -16 -26 -21
-70 -21 -48 -1 -63 3 -93 26 -20 15 -36 36 -36 46 0 10 -12 25 -28 33 -23 12
-31 12 -57 0z"/>
<path d="M1927 3684 c-16 -9 -26 -18 -24 -21 9 -9 45 7 51 22 6 18 8 18 -27
-1z"/>
<path d="M2598 3685 c-3 -6 -4 -19 -2 -30 2 -11 6 -40 9 -65 10 -89 12 -101
19 -107 14 -15 14 8 0 97 -17 113 -19 117 -26 105z"/>
<path d="M1850 3609 c-7 -11 -10 -23 -7 -25 2 -2 9 7 15 21 14 30 7 33 -8 4z"/>
<path d="M1787 3528 c-15 -18 -27 -37 -27 -41 0 -8 -108 -157 -121 -167 -3 -3
-3 -14 1 -25 6 -16 18 -3 68 75 34 52 72 108 85 124 47 61 42 91 -6 34z"/>
<path d="M2425 3450 c-6 -18 3 -39 45 -106 16 -24 23 -67 35 -200 18 -204 19
-255 4 -288 -8 -17 -9 -30 -2 -38 15 -20 16 -207 2 -330 -13 -111 -13 -111 10
-129 23 -19 23 -20 7 -61 -10 -24 -31 -71 -49 -105 -31 -60 -31 -62 -13 -82
11 -12 26 -21 35 -21 12 0 10 5 -7 18 -21 16 -22 20 -8 47 41 86 65 143 71
168 10 38 41 36 50 -4 4 -17 15 -39 25 -49 9 -9 30 -50 45 -91 15 -41 47 -119
71 -173 24 -55 44 -109 44 -122 0 -12 7 -27 15 -34 25 -21 17 -56 -20 -89 -20
-17 -43 -31 -53 -32 -9 0 -30 -3 -47 -7 -16 -3 -55 -6 -85 -7 -55 0 -55 0 -58
32 -2 21 8 56 27 95 36 76 56 181 48 255 -6 58 -32 102 -51 83 -7 -7 -5 -14 6
-22 23 -19 29 -68 18 -160 -11 -92 -58 -199 -97 -225 -23 -15 -23 -18 -23
-232 1 -119 5 -247 10 -286 25 -198 49 -362 55 -376 4 -12 -5 -21 -37 -37 -74
-34 -129 -45 -233 -46 -80 -1 -109 3 -143 19 l-43 20 -5 185 c-4 183 -37 583
-54 670 -11 54 -4 -126 10 -260 5 -47 10 -190 11 -318 2 -204 0 -235 -14 -249
-9 -9 -20 -13 -24 -9 -4 4 -1 11 6 15 8 5 -11 13 -54 22 -101 20 -104 23 -78
105 29 96 53 212 53 256 0 21 9 127 21 235 15 145 19 227 14 306 -5 74 -3 107
4 107 6 0 11 -11 11 -24 0 -14 5 -28 11 -31 12 -8 13 -16 -32 230 -16 94 -41
212 -55 264 -14 51 -23 96 -20 98 2 2 30 11 62 20 32 8 70 21 84 28 14 7 41
16 60 20 19 4 42 13 50 20 28 24 91 55 101 50 5 -4 9 1 9 9 0 9 9 16 21 16 26
0 53 15 109 59 74 60 105 90 97 97 -3 4 -33 -18 -64 -49 -37 -37 -78 -64 -113
-78 -30 -12 -60 -26 -66 -31 -6 -4 -28 -14 -50 -22 -21 -8 -77 -31 -124 -51
-107 -46 -185 -68 -213 -59 -33 10 -153 142 -186 204 -16 30 -34 78 -40 105
-12 49 -40 111 -41 89 0 -6 11 -46 24 -90 27 -90 78 -182 130 -236 20 -20 36
-42 36 -48 0 -21 53 -90 70 -90 41 0 90 -258 90 -479 0 -49 4 -92 9 -96 6 -3
8 -24 7 -48 -2 -23 -9 -114 -15 -202 -20 -293 -38 -436 -70 -554 -18 -62 -29
-122 -26 -132 4 -12 25 -24 60 -34 37 -11 56 -23 60 -36 9 -27 -5 -189 -18
-214 -15 -28 -17 -124 -4 -132 6 -4 43 -6 82 -5 66 1 71 0 90 -26 17 -23 20
-42 19 -137 0 -63 -7 -130 -15 -158 l-14 -47 -105 0 c-58 0 -121 -4 -140 -9
-19 -5 -78 -12 -130 -15 -222 -13 -286 -24 -210 -37 44 -7 159 1 295 20 39 6
118 11 177 11 102 0 107 -1 126 -25 11 -14 27 -25 36 -25 21 0 20 16 -1 29
-10 6 -14 11 -10 11 5 0 2 7 -7 15 -13 13 -13 18 1 46 31 61 42 130 36 212 -5
67 -11 87 -38 127 -18 26 -35 63 -39 81 -3 19 -16 41 -28 50 -11 9 -24 34 -28
55 l-8 39 -1 -41 c-1 -39 -12 -54 -42 -54 -11 0 -10 228 1 235 5 3 16 -5 24
-17 13 -18 16 -19 16 -6 0 23 21 34 34 17 12 -16 161 -69 193 -69 32 0 41 -19
54 -115 14 -107 13 -153 -4 -174 -27 -34 -65 -118 -77 -172 -11 -49 -10 -67 5
-127 9 -39 23 -76 30 -82 16 -13 113 -17 167 -6 21 4 46 2 56 -3 13 -7 22 -7
29 0 6 6 25 6 55 0 25 -6 115 -11 199 -11 85 0 199 -3 254 -6 203 -13 290 -15
276 -5 -17 11 -6 31 19 31 26 0 35 -19 14 -27 -15 -5 -14 -8 6 -15 34 -13 49
7 77 104 31 104 40 247 21 338 -12 56 -17 65 -37 68 -18 3 -34 -7 -62 -38 -26
-29 -44 -40 -55 -36 -9 3 -37 -5 -62 -19 -66 -35 -249 -115 -299 -130 -49 -15
-84 -9 -211 33 -56 18 -95 38 -117 59 -24 23 -39 30 -55 26 -21 -6 -21 -6 6
-19 16 -8 50 -29 76 -48 26 -19 53 -36 60 -38 9 -3 8 -12 -6 -33 l-19 -28 31
22 c31 21 33 22 79 6 66 -23 139 -30 166 -17 28 14 145 63 222 93 33 12 64 27
70 31 5 4 15 8 21 8 20 0 103 59 114 81 46 86 83 -138 44 -271 -8 -30 -16 -68
-17 -85 -2 -27 -6 -30 -47 -38 -28 -5 -72 -3 -116 4 -56 9 -105 8 -225 -2
-230 -20 -525 -12 -607 18 -24 8 -46 12 -50 8 -7 -6 19 -30 42 -38 6 -2 8 -8
4 -12 -10 -11 -49 1 -89 28 l-34 23 0 85 c1 154 19 180 118 172 57 -5 67 -3
87 17 24 24 21 61 -7 92 -8 9 -21 57 -28 106 -7 49 -16 105 -20 124 -6 30 -3
38 16 52 13 9 45 17 74 17 72 2 110 12 108 29 -1 8 -11 42 -23 75 -34 99 -68
255 -79 366 -16 170 -23 427 -11 434 6 4 25 2 43 -4 62 -20 93 -21 165 -5 59
13 81 24 113 54 47 45 49 71 11 137 -15 26 -47 95 -71 153 -25 58 -58 137 -74
175 -16 39 -33 74 -38 80 -5 5 -9 24 -9 43 0 28 5 35 35 48 19 8 35 18 35 22
0 4 -10 57 -21 117 -16 87 -22 168 -26 388 -3 152 -9 277 -12 277 -4 0 -9
-140 -10 -310 -1 -250 1 -310 11 -308 8 2 14 -10 16 -30 3 -30 1 -33 -16 -27
-11 3 -23 1 -27 -5 -3 -5 -18 -10 -33 -10 -54 0 -55 5 -49 164 3 80 8 150 11
155 7 11 -8 198 -30 381 -13 109 -13 131 0 173 14 47 14 47 -10 47 -13 0 -24
4 -24 9 0 5 -11 16 -24 25 -23 15 -25 14 -31 -4z m80 -50 c3 -5 -1 -10 -9 -10
-9 0 -16 5 -16 10 0 6 4 10 9 10 6 0 13 -4 16 -10z m105 -940 c0 -5 -4 -10
-10 -10 -5 0 -10 5 -10 10 0 6 5 10 10 10 6 0 10 -4 10 -10z m60 -25 c0 -16
-27 -32 -37 -22 -3 4 -3 13 0 22 8 20 37 20 37 0z m-54 -6 c15 -25 -65 -58
-95 -39 -23 13 -4 38 31 43 18 2 38 5 45 5 6 1 15 -3 19 -9z m-232 -1721 c15
-148 16 -177 7 -182 -24 -15 -38 10 -59 111 -25 113 -23 123 25 123 19 0 22
-7 27 -52z m-340 -187 c25 -27 12 -41 -37 -40 -23 0 -36 3 -29 6 6 2 12 13 12
23 0 16 11 27 31 29 3 1 14 -8 23 -18z m404 -63 c4 -31 -21 -40 -32 -12 -4 10
-13 13 -26 9 -13 -4 -20 -2 -20 7 0 8 -4 6 -11 -4 -13 -24 -29 -23 -29 1 0 21
28 30 85 27 25 -1 31 -6 33 -28z m719 -364 c-3 -3 -12 -4 -19 -1 -8 3 -5 6 6
6 11 1 17 -2 13 -5z"/>
<path d="M2623 3436 c0 -18 3 -24 9 -18 7 7 7 16 0 28 -8 14 -9 13 -9 -10z"/>
<path d="M415 3318 c-36 -19 -66 -52 -87 -91 -11 -22 -17 -41 -14 -44 2 -3 14
13 25 35 40 79 116 116 154 74 30 -33 15 -128 -27 -179 -29 -34 -56 -97 -56
-128 0 -13 -5 -25 -12 -27 -6 -2 -14 -44 -19 -104 -10 -120 -11 -230 -3 -221
8 8 15 98 14 180 -1 52 2 68 14 73 9 3 13 10 10 16 -3 5 -2 17 2 26 4 9 8 34
9 54 2 23 21 66 49 113 36 59 47 89 51 131 4 49 2 58 -20 80 -26 26 -58 30
-90 12z"/>
<path d="M2630 3274 c0 -16 5 -36 10 -44 8 -11 9 -5 6 23 -4 46 -16 62 -16 21z"/>
<path d="M1530 3264 c-60 -35 -74 -49 -27 -30 38 16 97 56 81 56 -5 -1 -29
-12 -54 -26z"/>
<path d="M1635 3260 c-3 -5 -1 -10 4 -10 6 0 11 5 11 10 0 6 -2 10 -4 10 -3 0
-8 -4 -11 -10z"/>
<path d="M66 3207 c-42 -43 -43 -149 -1 -202 14 -18 14 -16 0 19 -15 40 -18
102 -6 146 9 33 68 49 114 32 41 -16 47 -8 8 12 -44 23 -88 20 -115 -7z"/>
<path d="M300 3162 c0 -6 -6 -17 -13 -24 -8 -8 -10 -26 -6 -48 5 -30 7 -31 8
-8 0 15 6 39 11 54 6 15 8 29 5 32 -3 3 -5 0 -5 -6z"/>
<path d="M1586 3098 c-12 -79 -16 -142 -7 -128 4 8 11 48 14 88 6 74 2 97 -7
40z"/>
<path d="M1111 3089 c-13 -5 -22 -12 -19 -15 3 -3 21 2 39 10 37 16 19 21 -20
5z"/>
<path d="M990 3044 c-41 -13 -80 -22 -86 -20 -17 6 -36 -18 -32 -40 2 -11 -7
-23 -22 -31 l-25 -13 31 0 c32 0 64 -32 64 -62 0 -7 9 -19 21 -26 15 -10 20
-21 17 -45 -2 -24 1 -31 12 -30 29 4 186 60 225 80 l39 21 -39 -2 c-22 0 -47
-8 -55 -17 -9 -9 -47 -23 -84 -33 -65 -16 -69 -16 -82 1 -7 10 -14 25 -14 35
0 9 -10 41 -21 72 -26 68 -19 82 49 91 67 9 79 14 86 30 7 19 5 19 -84 -11z"/>
<path d="M1063 3004 c-18 -8 -4 -33 28 -50 16 -8 29 -21 29 -29 0 -8 4 -15 10
-15 5 0 -3 23 -17 50 -26 50 -28 52 -50 44z"/>
<path d="M1485 2970 c-13 -5 -14 -9 -5 -9 8 0 24 4 35 9 13 5 14 9 5 9 -8 0
-24 -4 -35 -9z"/>
<path d="M130 2905 c12 -22 30 -51 41 -65 17 -21 17 -18 -3 16 -35 61 -64 99
-38 49z"/>
<path d="M1582 2910 c0 -19 2 -27 5 -17 2 9 2 25 0 35 -3 9 -5 1 -5 -18z"/>
<path d="M1280 2900 c-9 -6 -10 -10 -3 -10 6 0 15 5 18 10 8 12 4 12 -15 0z"/>
<path d="M450 2881 c0 -6 21 -11 48 -13 42 -3 47 -5 45 -25 -2 -13 -1 -23 2
-23 8 0 75 45 75 50 0 3 -28 6 -62 7 -34 1 -73 4 -85 8 -13 3 -23 1 -23 -4z"/>
<path d="M859 2809 c-45 -42 -41 -42 24 -2 20 13 37 28 37 33 0 19 -17 10 -61
-31z"/>
<path d="M200 2786 c0 -2 8 -10 18 -17 15 -13 16 -12 3 4 -13 16 -21 21 -21
13z"/>
<path d="M244 2727 c14 -20 15 -31 8 -40 -9 -10 -3 -13 27 -12 26 0 37 4 34
13 -3 6 -9 12 -13 12 -5 0 -23 12 -41 27 l-33 28 18 -28z"/>
<path d="M175 2640 c-3 -6 1 -7 9 -4 18 7 21 14 7 14 -6 0 -13 -4 -16 -10z"/>
<path d="M104 2575 c-14 -77 27 -186 88 -235 52 -40 142 -24 199 37 l34 37
-35 -29 c-108 -87 -192 -71 -249 49 -32 68 -39 122 -21 157 7 12 7 19 1 19 -6
0 -13 -16 -17 -35z"/>
<path d="M2535 2141 c-3 -5 -1 -12 5 -16 5 -3 10 1 10 9 0 18 -6 21 -15 7z"/>
<path d="M2477 2038 c-2 -18 -3 -49 -2 -68 2 -19 4 -57 6 -85 l2 -50 7 55 c11
78 12 180 1 180 -5 0 -11 -15 -14 -32z"/>
<path d="M2482 1800 c0 -14 2 -19 5 -12 2 6 2 18 0 25 -3 6 -5 1 -5 -13z"/>
<path d="M1996 1795 c4 -8 8 -15 10 -15 2 0 4 7 4 15 0 8 -4 15 -10 15 -5 0
-7 -7 -4 -15z"/>
<path d="M2726 1493 c5 -5 12 -12 15 -16 3 -5 9 -2 12 7 5 12 0 16 -15 16 -12
0 -17 -3 -12 -7z"/>
<path d="M3330 1363 c0 -74 3 -103 10 -93 5 8 10 34 10 58 0 23 3 42 8 42 11
0 32 -51 32 -78 0 -29 52 -78 91 -86 16 -3 42 -9 58 -12 38 -8 61 24 61 87 0
59 -17 108 -48 137 -36 34 -64 26 -80 -25 -16 -49 -32 -57 -32 -16 0 21 -3 24
-12 15 -22 -22 -39 -12 -59 33 -11 25 -24 45 -29 45 -6 0 -10 -46 -10 -107z
m256 -49 c7 -47 -12 -99 -36 -99 -22 0 -59 83 -60 132 0 26 6 48 17 59 16 16
19 15 45 -16 16 -19 30 -51 34 -76z m-119 -56 c-3 -7 -5 -2 -5 12 0 14 2 19 5
13 2 -7 2 -19 0 -25z"/>
<path d="M2929 1453 c-4 -28 6 -86 22 -138 10 -33 19 -70 19 -82 0 -32 10 -53
26 -53 17 0 17 -2 -1 50 -14 40 -14 45 2 64 10 12 18 22 19 24 4 9 34 -13 34
-24 0 -8 10 -24 21 -35 26 -26 27 -70 4 -106 -22 -34 -12 -40 13 -9 11 15 25
26 31 26 6 0 11 1 11 3 0 21 -31 232 -35 235 -13 13 -14 -9 -4 -56 6 -28 9
-62 7 -74 -3 -21 -6 -18 -34 22 -17 25 -36 61 -43 80 -14 42 -48 80 -73 80
-10 0 -18 -3 -19 -7z m51 -68 c0 -13 -4 -27 -10 -30 -11 -7 -25 39 -15 55 10
16 25 2 25 -25z"/>
<path d="M2757 1429 c4 -13 8 -18 11 -10 2 7 -1 18 -6 23 -8 8 -9 4 -5 -13z"/>
<path d="M3144 1416 c-3 -8 -1 -23 4 -33 6 -10 20 -61 32 -113 29 -125 27
-120 45 -126 34 -13 85 61 85 123 0 44 -5 52 -42 75 -14 10 -30 28 -34 40 -4
13 -14 28 -23 35 -22 17 -60 16 -67 -1z m74 -42 c3 -23 -21 -49 -38 -39 -5 3
-10 20 -10 36 0 26 3 30 23 27 13 -2 23 -11 25 -24z m70 -56 c19 -19 14 -30
-10 -26 -13 2 -24 11 -26 21 -4 20 18 23 36 5z m-19 -47 c26 -20 25 -48 -3
-86 -12 -16 -18 -18 -32 -9 -17 10 -47 100 -39 115 7 10 48 -1 74 -20z"/>
<path d="M2772 1370 c0 -14 2 -19 5 -12 2 6 2 18 0 25 -3 6 -5 1 -5 -13z"/>
<path d="M2830 1335 c-11 -13 -9 -15 13 -15 29 0 43 -14 52 -53 8 -31 -9 -83
-30 -91 -17 -6 -45 36 -52 80 -6 35 -25 42 -31 11 -5 -23 47 -96 74 -103 12
-3 32 -1 43 6 30 16 30 116 0 154 -23 29 -50 34 -69 11z"/>
<path d="M2990 1148 c0 -12 38 -10 45 2 4 6 -5 9 -19 8 -15 -1 -26 -6 -26 -10z"/>
<path d="M2754 1013 c21 -125 32 -173 41 -182 14 -13 95 9 95 26 0 17 -12 16
-49 -4 -28 -16 -33 -16 -41 -3 -5 8 -10 25 -10 38 0 17 6 22 24 22 27 0 48 20
38 38 -4 6 -21 10 -37 9 -40 -3 -46 27 -8 41 l28 10 -27 1 c-32 1 -36 15 -10
30 14 9 11 10 -17 11 -33 0 -34 0 -27 -37z"/>
<path d="M3211 1009 c35 -37 37 -67 7 -78 -31 -12 -38 -6 -38 34 0 19 -4 37
-10 40 -6 4 -10 -6 -10 -22 0 -42 -11 -74 -24 -70 -6 2 -15 27 -21 55 -13 67
-25 76 -25 19 0 -26 -3 -47 -6 -47 -3 0 -24 16 -47 35 -22 19 -45 35 -50 35
-9 0 -6 -27 11 -90 l10 -35 1 33 c1 17 6 32 12 32 6 0 30 -16 54 -35 26 -22
46 -32 50 -25 12 19 25 10 26 -17 0 -16 3 -23 5 -16 3 6 28 24 57 38 l51 27
14 -21 c18 -26 36 -28 22 -2 -5 11 -10 27 -10 35 0 27 25 17 37 -14 12 -31 33
-41 33 -16 0 19 -39 86 -50 86 -4 0 -10 -7 -14 -15 -10 -26 -32 -16 -60 25
-14 22 -33 40 -40 40 -9 0 -3 -12 15 -31z"/>
<path d="M2927 928 c7 -67 22 -98 23 -47 0 48 -10 99 -21 99 -4 0 -5 -24 -2
-52z"/>
<path d="M3330 770 c-19 -11 -42 -19 -51 -20 -28 0 -30 -36 -2 -49 13 -6 30
-11 37 -11 6 0 21 -6 31 -14 18 -13 17 -15 -13 -54 -51 -64 -44 -73 35 -45 26
9 77 22 113 29 l65 13 -70 -3 c-38 -1 -78 -6 -87 -10 -13 -6 -18 -4 -18 8 0 9
7 19 15 22 18 7 20 35 3 52 -7 7 -24 12 -38 12 -14 0 -35 6 -46 14 -18 14 -17
15 18 30 21 9 41 16 46 16 5 0 15 7 22 15 18 22 -16 19 -60 -5z"/>
<path d="M2830 741 c0 -5 -11 -22 -23 -38 -30 -36 -38 -69 -25 -98 10 -21 26
-31 80 -48 9 -3 18 -16 20 -28 6 -39 24 -32 20 8 -3 24 0 40 10 47 8 6 20 21
27 34 16 31 27 21 35 -33 4 -25 12 -45 17 -45 6 0 7 15 3 38 -12 66 -29 107
-44 107 -21 0 -83 35 -93 51 -9 16 -27 19 -27 5z m20 -77 c16 -42 13 -84 -7
-84 -25 1 -53 24 -53 44 0 20 29 66 41 66 5 0 14 -12 19 -26z m61 16 c23 -13
25 -43 4 -60 -18 -15 -25 -9 -42 32 -16 37 -1 48 38 28z"/>
<path d="M3165 690 c-4 -12 -4 -24 -1 -27 3 -4 6 1 6 10 0 24 35 22 60 -3 24
-24 26 -62 5 -80 -21 -17 -39 -7 -58 32 -9 18 -17 27 -17 20 0 -23 39 -89 56
-96 28 -11 54 22 54 68 -1 49 -26 84 -68 92 -25 5 -31 2 -37 -16z"/>
<path d="M3046 678 c-9 -35 -7 -106 3 -112 5 -4 12 12 16 34 7 42 20 52 30 23
8 -25 65 -90 65 -75 0 7 -15 34 -32 60 -18 26 -38 57 -44 67 -15 28 -31 29
-38 3z"/>
<path d="M995 590 c-12 -20 -16 -220 -6 -291 14 -87 59 -232 85 -271 13 -20
27 -28 48 -28 26 0 29 2 18 15 -15 18 -5 23 60 28 38 3 35 4 -17 5 -77 2 -104
14 -126 55 -34 63 -59 178 -50 230 5 32 9 35 57 46 60 13 96 35 96 58 0 14 -4
13 -22 -4 -51 -46 -100 -56 -118 -24 -5 11 -10 51 -10 90 0 79 6 84 55 51 17
-11 37 -20 46 -20 9 0 24 -9 33 -19 10 -11 30 -22 44 -26 15 -4 68 -26 119
-50 l91 -43 16 -56 c9 -30 21 -58 26 -61 15 -9 12 10 -6 49 -21 43 -13 71 19
62 12 -4 56 -10 97 -13 71 -4 82 -2 165 32 50 20 109 44 133 53 23 9 42 20 42
23 0 4 -53 -11 -117 -32 -180 -59 -198 -62 -254 -56 -51 6 -174 42 -194 57 -5
4 -26 11 -45 15 -19 4 -42 13 -50 21 -9 7 -47 28 -85 45 -39 17 -82 40 -97 50
-29 21 -44 24 -53 9z"/>
<path d="M3260 406 c0 -2 7 -9 15 -16 12 -10 15 -10 15 4 0 9 -7 16 -15 16 -8
0 -15 -2 -15 -4z"/>
<path d="M1510 322 c0 -5 7 -15 15 -22 8 -7 15 -8 15 -2 0 5 -7 15 -15 22 -8
7 -15 8 -15 2z"/>
<path d="M2575 294 c-24 -37 -13 -40 14 -4 12 17 17 30 12 30 -5 0 -16 -12
-26 -26z"/>
<path d="M2736 250 l-18 -35 22 21 c12 12 20 28 18 35 -3 9 -12 0 -22 -21z"/>
<path d="M1256 38 c4 -6 -2 -18 -12 -26 -18 -13 -16 -14 15 -8 42 8 43 9 35
30 -3 9 -15 16 -26 16 -12 0 -17 -4 -12 -12z"/>
<path d="M1398 43 c7 -3 16 -2 19 1 4 3 -2 6 -13 5 -11 0 -14 -3 -6 -6z"/>
<path d="M2293 20 c2 -9 17 -16 38 -16 31 -2 31 -1 4 3 -16 3 -34 10 -38 16
-6 8 -7 7 -4 -3z"/>
<path d="M2498 3 c6 -2 18 -2 25 0 6 3 1 5 -13 5 -14 0 -19 -2 -12 -5z"/>
</g>
</svg>
