<?xml version="1.0" standalone="no"?>
<!DOCTYPE svg PUBLIC "-//W3C//DTD SVG 20010904//EN"
 "http://www.w3.org/TR/2001/REC-SVG-20010904/DTD/svg10.dtd">
<svg version="1.0" xmlns="http://www.w3.org/2000/svg"
 width="403.000000pt" height="619.000000pt" viewBox="0 0 403.000000 619.000000"
 preserveAspectRatio="xMidYMid meet">

<g transform="translate(0.000000,619.000000) scale(0.100000,-0.100000)"
fill="#000000" stroke="none">
<path d="M2385 5511 c-7 -12 12 -24 25 -16 11 7 4 25 -10 25 -5 0 -11 -4 -15
-9z"/>
<path d="M2756 5491 c-4 -7 -5 -15 -2 -18 9 -9 19 4 14 18 -4 11 -6 11 -12 0z"/>
<path d="M3000 5350 c0 -5 10 -10 23 -10 18 0 19 2 7 10 -19 13 -30 13 -30 0z"/>
<path d="M2810 5028 c0 -14 42 -78 51 -78 12 0 -9 73 -23 81 -18 12 -28 11
-28 -3z"/>
<path d="M2900 4841 c0 -11 5 -23 10 -26 6 -3 10 3 10 14 0 11 -4 23 -10 26
-5 3 -10 -3 -10 -14z"/>
<path d="M1664 4805 c-10 -8 -14 -15 -8 -15 6 0 17 7 24 15 16 19 9 19 -16 0z"/>
<path d="M2017 4764 c-9 -9 4 -34 18 -34 14 0 27 25 18 34 -4 3 -12 6 -18 6
-6 0 -14 -3 -18 -6z"/>
<path d="M2210 4727 c0 -34 15 -57 37 -57 18 0 16 55 -3 74 -24 24 -34 19 -34
-17z"/>
<path d="M2894 4626 c-3 -8 -4 -27 -2 -42 2 -23 8 -29 28 -28 32 0 37 25 13
58 -21 29 -31 32 -39 12z"/>
<path d="M2947 4488 c-26 -14 -20 -28 12 -28 36 0 46 12 22 27 -11 7 -23 8
-34 1z"/>
<path d="M2747 4332 c-23 -25 -21 -39 4 -47 24 -8 41 9 37 39 -4 27 -21 30
-41 8z"/>
<path d="M2787 4153 c-7 -12 12 -73 23 -73 15 0 11 42 -4 63 -8 10 -16 15 -19
10z"/>
<path d="M1148 3924 c-11 -11 9 -59 25 -62 12 -3 17 3 17 20 0 32 -26 59 -42
42z"/>
<path d="M1476 3489 c-18 -26 -21 -55 -6 -64 15 -9 46 63 33 76 -8 8 -15 4
-27 -12z"/>
<path d="M550 3471 c0 -12 8 -35 19 -49 18 -27 43 -93 46 -123 1 -16 63 -78
78 -79 5 0 15 -7 24 -15 8 -8 19 -13 24 -9 11 6 -17 48 -75 115 -23 26 -52 69
-66 95 -13 27 -30 58 -37 69 -13 19 -13 19 -13 -4z"/>
<path d="M1416 3232 c-3 -6 -1 -14 5 -17 14 -9 20 -2 10 14 -6 8 -11 9 -15 3z"/>
<path d="M810 3132 c0 -5 7 -15 15 -22 33 -27 17 -40 -50 -40 -46 0 -65 -4
-65 -13 0 -10 18 -11 78 -6 42 3 91 4 107 1 63 -11 70 -9 73 22 5 38 -7 48
-66 51 -27 1 -59 6 -70 10 -12 3 -22 2 -22 -3z"/>
<path d="M1108 3087 c-48 -10 -61 -28 -34 -44 8 -4 15 -17 17 -27 5 -27 26
-31 33 -8 4 11 15 30 26 42 20 23 27 51 13 49 -5 -1 -29 -6 -55 -12z"/>
<path d="M1117 2863 c-4 -3 -7 -13 -7 -21 0 -12 3 -12 15 -2 8 7 15 16 15 21
0 11 -14 12 -23 2z"/>
<path d="M1821 1983 c7 -12 15 -20 18 -17 3 2 -3 12 -13 22 -17 16 -18 16 -5
-5z"/>
<path d="M1846 1935 c4 -8 11 -15 16 -15 6 0 5 6 -2 15 -7 8 -14 15 -16 15 -2
0 -1 -7 2 -15z"/>
<path d="M1870 1899 c0 -8 8 -24 18 -35 10 -10 42 -62 71 -114 60 -106 194
-294 252 -354 22 -22 39 -43 39 -47 0 -4 10 -9 22 -12 38 -10 310 138 406 221
15 13 -6 2 -46 -23 -41 -25 -97 -57 -125 -70 -29 -13 -77 -38 -107 -55 -62
-34 -112 -38 -151 -12 -40 26 -104 99 -156 177 -26 39 -51 72 -55 73 -4 2 -8
8 -8 12 0 5 -20 38 -44 74 -25 35 -54 82 -65 103 -28 55 -50 82 -51 62z"/>
<path d="M2795 1654 c-27 -25 -36 -36 -20 -25 49 34 91 71 80 71 -5 0 -32 -21
-60 -46z"/>
<path d="M1526 959 c-15 -12 -47 -41 -72 -65 -27 -28 -53 -44 -68 -44 -44 0
-100 -85 -138 -208 -11 -37 -24 -72 -29 -78 -6 -7 -77 -13 -192 -17 -102 -4
-213 -13 -252 -22 -217 -47 -197 -46 -410 -17 -204 29 -245 42 -290 95 l-36
42 6 -33 c11 -53 47 -134 156 -347 56 -110 109 -214 118 -232 25 -50 56 -44
121 23 30 30 81 75 114 100 48 37 64 44 90 39 38 -6 125 13 231 52 103 38 168
72 273 141 83 55 86 55 181 63 112 9 276 58 304 90 11 14 17 38 17 73 0 113
-37 320 -63 354 -14 17 -30 15 -61 -9z m63 -74 c15 -32 28 -255 17 -298 -7
-30 -69 -57 -200 -88 -93 -21 -130 -20 -140 7 -9 23 65 174 116 238 24 29 50
67 60 84 19 36 95 94 117 90 9 -2 22 -17 30 -33z m-444 -369 c59 -25 43 -62
-54 -130 -81 -57 -204 -113 -287 -132 -112 -24 -143 -10 -123 58 7 25 5 45 -8
80 -16 45 -16 48 1 67 38 42 164 67 344 70 61 1 104 -4 127 -13z m-726 -41
c70 -17 124 -37 164 -62 l59 -36 -5 -41 c-4 -29 -14 -48 -35 -66 -16 -14 -36
-39 -45 -55 -33 -65 -132 -145 -179 -145 -25 0 -71 69 -153 225 -42 83 -81
154 -86 160 -5 5 -9 17 -9 27 0 29 156 25 289 -7z"/>
<path d="M0 706 c0 -8 5 -18 10 -21 6 -3 10 1 10 9 0 8 -4 18 -10 21 -5 3 -10
-1 -10 -9z"/>
<path d="M3792 677 c-14 -16 -57 -131 -88 -231 -13 -44 -30 -89 -37 -100 -21
-32 -55 -136 -62 -186 -4 -25 -15 -69 -26 -98 -10 -29 -19 -55 -19 -57 0 -3
36 -5 80 -5 l80 0 0 28 c0 23 42 234 71 357 12 50 38 176 48 232 11 60 -17 96
-47 60z"/>
</g>
</svg>
