<?xml version="1.0" standalone="no"?>
<!DOCTYPE svg PUBLIC "-//W3C//DTD SVG 20010904//EN"
 "http://www.w3.org/TR/2001/REC-SVG-20010904/DTD/svg10.dtd">
<svg version="1.0" xmlns="http://www.w3.org/2000/svg"
 width="355.000000pt" height="703.000000pt" viewBox="0 0 355.000000 703.000000"
 preserveAspectRatio="xMidYMid meet">

<g transform="translate(0.000000,703.000000) scale(0.100000,-0.100000)"
fill="#000000" stroke="none">
<path d="M2287 6195 c-13 -9 -15 -15 -7 -20 14 -8 34 9 29 23 -3 7 -11 6 -22
-3z"/>
<path d="M2506 6188 c7 -10 84 -10 84 0 0 4 -20 7 -44 7 -25 0 -42 -3 -40 -7z"/>
<path d="M2600 6195 c0 -6 17 -32 46 -73 1 -2 10 1 21 7 10 5 27 13 38 17 18
7 18 8 -5 12 -14 2 -32 10 -40 17 -18 15 -60 29 -60 20z"/>
<path d="M2226 6125 c-9 -13 -16 -28 -16 -32 0 -4 5 -1 10 7 7 12 11 8 16 -18
9 -43 24 -23 24 31 0 43 -11 47 -34 12z"/>
<path d="M2174 6062 c-32 -21 -46 -129 -20 -151 13 -11 14 -9 10 14 -3 15 -1
32 4 39 9 10 27 106 20 106 -2 0 -8 -4 -14 -8z"/>
<path d="M995 6051 c-16 -7 -14 -9 14 -14 44 -9 241 -7 311 3 l55 7 -65 2
c-36 1 -117 4 -180 6 -63 2 -124 0 -135 -4z"/>
<path d="M1445 6040 c-3 -5 -2 -10 4 -10 5 0 13 5 16 10 3 6 2 10 -4 10 -5 0
-13 -4 -16 -10z"/>
<path d="M892 5994 c-34 -32 -35 -35 -12 -29 33 9 83 38 87 50 8 25 -42 11
-75 -21z"/>
<path d="M1570 6020 c36 -11 52 -11 45 0 -3 6 -21 10 -38 9 -31 -1 -31 -1 -7
-9z"/>
<path d="M2856 5975 c-3 -8 -1 -15 4 -15 6 0 10 7 10 15 0 8 -2 15 -4 15 -2 0
-6 -7 -10 -15z"/>
<path d="M1790 5889 c-20 -28 -24 -29 -39 -15 -10 9 -29 16 -43 16 -29 0 -56
-24 -38 -35 6 -3 8 -11 5 -16 -4 -5 -2 -9 3 -9 6 0 12 6 15 14 8 20 59 8 55
-13 -3 -12 -14 -16 -41 -15 -30 1 -37 -2 -33 -13 3 -8 6 -17 6 -19 0 -2 14 -4
30 -4 26 0 30 -3 25 -22 -11 -50 -14 -117 -6 -122 10 -7 21 27 21 67 0 31 27
84 46 91 7 3 14 -13 18 -44 5 -39 12 -53 34 -66 15 -9 36 -30 47 -47 31 -48
45 -46 34 5 -15 68 -17 72 -33 58 -31 -25 -76 22 -76 79 0 16 -4 32 -9 36 -14
8 -8 78 7 83 7 2 12 8 12 13 0 18 -19 8 -40 -22z"/>
<path d="M2783 5897 c-4 -7 -21 -18 -37 -25 -40 -18 -29 -23 22 -9 29 8 42 16
42 29 0 21 -15 24 -27 5z"/>
<path d="M976 5861 c-3 -4 -27 -6 -53 -3 l-48 4 60 -61 c33 -33 62 -61 64 -61
2 0 -9 16 -23 35 -15 19 -25 39 -22 44 5 8 34 17 131 39 38 9 36 10 -32 11
-39 1 -74 -3 -77 -8z"/>
<path d="M1030 5686 c36 -53 51 -65 47 -37 -3 22 -54 81 -69 81 -5 0 5 -20 22
-44z"/>
<path d="M2742 5704 c-12 -8 -22 -22 -22 -30 0 -8 -5 -14 -12 -14 -6 0 -8 -3
-5 -6 8 -9 87 43 87 56 0 15 -23 12 -48 -6z"/>
<path d="M2859 5626 c10 -12 22 -15 39 -11 13 3 30 1 38 -6 8 -7 17 -9 21 -6
3 4 12 2 20 -4 9 -8 13 -8 13 -1 0 11 -39 24 -111 39 -31 6 -33 5 -20 -11z"/>
<path d="M2788 5619 c-10 -5 -18 -15 -18 -21 0 -7 7 -5 18 4 9 9 24 18 32 21
13 5 13 5 0 6 -8 0 -23 -4 -32 -10z"/>
<path d="M1102 5590 c12 -16 26 -30 31 -30 10 0 -35 59 -46 59 -4 1 2 -12 15
-29z"/>
<path d="M2600 5565 c-13 -14 -32 -25 -42 -25 -22 0 -23 -13 -3 -33 8 -8 11
-18 7 -21 -11 -12 21 -26 60 -26 33 0 40 -4 57 -38 23 -44 36 -57 71 -66 21
-6 22 -5 8 4 -10 6 -18 18 -18 25 0 8 -4 15 -10 15 -8 0 -15 28 -7 31 1 0 41
3 90 6 84 4 108 -3 74 -24 -16 -10 -29 -53 -16 -53 5 0 13 8 16 18 4 9 12 21
20 25 8 5 13 27 13 57 0 39 4 52 22 64 12 9 19 19 15 22 -10 11 -57 -25 -67
-51 -12 -31 -23 -37 -76 -37 -35 -1 -50 4 -72 25 -27 26 -40 67 -21 67 5 0 9
5 9 10 0 19 -39 -9 -55 -40 -18 -35 -40 -38 -56 -9 -8 16 -8 27 2 45 18 34 7
38 -21 9z"/>
<path d="M1190 5499 c17 -14 26 -17 28 -9 5 14 -16 30 -38 30 -10 -1 -7 -7 10
-21z"/>
<path d="M1240 5477 c0 -2 12 -17 26 -33 27 -31 94 -159 94 -180 0 -7 6 -17
14 -21 7 -4 16 -15 19 -23 3 -8 6 3 6 24 1 42 -36 156 -50 156 -5 0 -9 7 -9
15 0 9 -11 20 -24 24 -13 5 -26 17 -29 25 -5 13 -47 24 -47 13z"/>
<path d="M2516 5333 c-15 -24 -26 -47 -22 -50 3 -4 6 -1 6 5 0 7 7 12 15 12 8
0 15 8 15 18 0 10 5 23 11 29 6 6 10 16 8 21 -2 5 -17 -10 -33 -35z"/>
<path d="M1320 5205 c0 -8 2 -15 4 -15 2 0 6 7 10 15 3 8 1 15 -4 15 -6 0 -10
-7 -10 -15z"/>
<path d="M1405 5125 c0 -24 4 -47 8 -51 4 -4 7 13 7 39 0 25 -4 48 -8 51 -4 2
-8 -15 -7 -39z"/>
<path d="M2525 5130 c4 -6 11 -8 16 -5 14 9 11 15 -7 15 -8 0 -12 -5 -9 -10z"/>
<path d="M1189 5104 c-24 -16 -57 -27 -93 -31 -65 -7 -63 -18 5 -26 43 -5 49
-3 95 39 54 48 50 57 -7 18z"/>
<path d="M977 5042 c-17 -19 -14 -32 8 -32 7 0 13 11 13 25 0 30 0 30 -21 7z"/>
<path d="M1408 5054 c-5 -4 -8 -21 -8 -38 0 -21 3 -27 11 -19 6 6 9 23 7 38
-2 15 -6 23 -10 19z"/>
<path d="M2792 5000 c0 -19 2 -27 5 -17 2 9 2 25 0 35 -3 9 -5 1 -5 -18z"/>
<path d="M2782 4940 c0 -14 2 -19 5 -12 2 6 2 18 0 25 -3 6 -5 1 -5 -13z"/>
<path d="M889 4893 c-13 -16 -12 -17 4 -4 9 7 17 15 17 17 0 8 -8 3 -21 -13z"/>
<path d="M2285 4870 c3 -4 -2 -11 -11 -14 -8 -3 -12 -10 -9 -16 3 -5 -2 -10
-12 -10 -24 -1 -49 -20 -57 -47 -5 -16 -2 -25 15 -33 18 -10 26 -8 50 9 15 12
33 21 39 21 5 0 10 5 10 12 0 6 10 22 22 35 12 13 19 25 16 28 -10 10 -69 24
-63 15z"/>
<path d="M2737 4830 c-3 -11 -1 -20 4 -20 5 0 9 9 9 20 0 11 -2 20 -4 20 -2 0
-6 -9 -9 -20z"/>
<path d="M2750 4770 c0 -11 4 -20 9 -20 23 0 66 -132 74 -227 1 -13 8 -25 15
-28 15 -5 16 48 2 154 -11 81 -16 91 -66 120 -34 20 -34 20 -34 1z m80 -81 c0
-5 -4 -9 -10 -9 -5 0 -10 7 -10 16 0 8 5 12 10 9 6 -3 10 -10 10 -16z"/>
<path d="M1626 4652 c-2 -4 6 -12 19 -18 19 -9 22 -8 17 8 -4 18 -27 25 -36
10z"/>
<path d="M2836 4454 c-3 -9 -8 -48 -11 -88 -6 -89 11 -57 21 39 7 63 3 82 -10
49z"/>
<path d="M2623 4434 c-18 -9 -33 -23 -33 -32 0 -12 6 -10 25 8 16 15 31 21 45
17 17 -4 19 -3 9 9 -6 8 -12 14 -13 14 0 0 -16 -8 -33 -16z"/>
<path d="M975 4400 c3 -5 10 -10 16 -10 5 0 9 5 9 10 0 6 -7 10 -16 10 -8 0
-12 -4 -9 -10z"/>
<path d="M2694 4379 c4 -13 7 -37 7 -54 -1 -22 1 -27 9 -19 13 13 3 81 -13 91
-7 4 -8 -2 -3 -18z"/>
<path d="M2600 4361 c0 -5 7 -11 14 -14 10 -4 13 -1 9 9 -6 15 -23 19 -23 5z"/>
<path d="M826 4300 c-26 -39 -36 -110 -16 -110 6 0 10 19 10 41 0 25 9 55 21
75 29 47 17 43 -15 -6z"/>
<path d="M1565 4320 c3 -5 10 -10 16 -10 5 0 9 5 9 10 0 6 -7 10 -16 10 -8 0
-12 -4 -9 -10z"/>
<path d="M1874 4289 c-9 -16 2 -22 21 -11 15 8 16 10 1 15 -8 3 -18 2 -22 -4z"/>
<path d="M2695 4238 c-4 -28 -16 -60 -26 -72 -11 -11 -19 -26 -19 -34 0 -16
29 18 47 53 10 20 18 105 9 105 -2 0 -7 -23 -11 -52z"/>
<path d="M2806 4235 c-3 -9 -6 -22 -5 -28 0 -7 5 -1 10 12 5 13 8 26 5 28 -2
2 -6 -3 -10 -12z"/>
<path d="M1525 4220 c7 -11 45 -20 45 -10 0 4 -11 10 -25 12 -13 3 -22 2 -20
-2z"/>
<path d="M1911 4174 c0 -11 3 -14 6 -6 3 7 2 16 -1 19 -3 4 -6 -2 -5 -13z"/>
<path d="M820 4157 c0 -8 14 -27 31 -41 23 -20 41 -26 72 -25 l42 1 -40 9
c-22 5 -47 11 -55 12 -8 2 -17 14 -20 27 -6 27 -30 40 -30 17z"/>
<path d="M2427 4140 c-3 -10 1 -27 9 -37 16 -21 18 -37 4 -28 -5 3 -10 4 -10
1 0 -3 18 -18 40 -32 30 -20 44 -24 52 -16 8 8 2 21 -21 48 -18 20 -36 47 -41
60 -11 29 -26 31 -33 4z"/>
<path d="M2775 4149 c-4 -6 -5 -12 -2 -15 2 -3 7 2 10 11 7 17 1 20 -8 4z"/>
<path d="M2625 4069 c-14 -30 -26 -42 -47 -46 -32 -6 -37 -28 -9 -43 26 -13
31 -13 31 5 0 8 7 15 15 15 8 0 15 -7 15 -15 0 -8 4 -15 8 -15 4 0 8 31 8 70
-1 38 -1 70 -2 70 -1 0 -9 -18 -19 -41z m2 -55 c-3 -3 -12 -4 -19 -1 -8 3 -5
6 6 6 11 1 17 -2 13 -5z"/>
<path d="M2750 4090 c-3 -31 -1 -51 7 -70 3 -8 8 -26 10 -40 2 -14 8 -29 14
-34 5 -6 9 -33 10 -60 0 -28 4 -69 9 -91 7 -32 8 -20 8 58 -1 75 -5 107 -19
135 -11 20 -19 48 -20 62 0 14 -4 34 -9 45 -8 18 -9 18 -10 -5z"/>
<path d="M2210 3726 c0 -17 27 -29 35 -16 4 6 3 15 0 20 -9 15 -35 12 -35 -4z"/>
<path d="M2816 3643 c-3 -3 -6 -14 -6 -23 0 -10 -11 -43 -25 -74 -28 -63 -29
-66 -17 -66 17 0 75 157 62 165 -4 2 -10 2 -14 -2z"/>
<path d="M2096 3573 c-6 -14 -5 -15 5 -6 7 7 10 15 7 18 -3 3 -9 -2 -12 -12z"/>
<path d="M2050 3495 c-7 -9 -8 -15 -2 -15 5 0 12 7 16 15 3 8 4 15 2 15 -2 0
-9 -7 -16 -15z"/>
<path d="M1988 3423 c-26 -29 -52 -72 -46 -78 2 -1 20 21 41 51 42 60 44 68 5
27z"/>
<path d="M2206 3442 c-6 -9 33 -46 41 -39 7 7 -16 47 -27 47 -5 0 -11 -4 -14
-8z"/>
<path d="M2731 3385 c0 -27 2 -35 8 -26 7 11 22 1 67 -45 56 -57 58 -60 57
-111 -1 -29 3 -56 10 -61 9 -8 13 11 14 76 2 68 -1 89 -14 104 -9 10 -20 18
-26 18 -5 0 -25 14 -44 30 -18 17 -40 30 -48 30 -7 0 -16 6 -18 13 -3 6 -6 -6
-6 -28z"/>
<path d="M2270 3375 c7 -8 17 -15 22 -15 6 0 5 7 -2 15 -7 8 -17 15 -22 15 -6
0 -5 -7 2 -15z"/>
<path d="M1927 3296 c-5 -21 -6 -41 -3 -44 12 -11 17 7 14 44 l-3 39 -8 -39z"/>
<path d="M2463 3135 c1 -45 6 -80 12 -80 17 0 17 88 1 125 -16 35 -16 35 -13
-45z"/>
<path d="M2037 3181 c-6 -25 102 -81 158 -81 22 0 53 -7 68 -15 21 -10 27 -11
24 -2 -2 6 -13 13 -25 15 -13 2 -22 11 -22 22 0 11 -10 20 -27 23 -69 14 -123
31 -123 39 0 5 -4 7 -9 3 -5 -3 -12 -1 -16 5 -10 16 -22 12 -28 -9z"/>
<path d="M2857 3031 c-22 -37 -21 -40 3 -34 14 4 20 14 20 34 0 16 -1 29 -3
29 -1 0 -10 -13 -20 -29z"/>
<path d="M1214 2792 c5 -8 76 -4 76 4 0 2 -18 4 -41 4 -22 0 -38 -4 -35 -8z"/>
<path d="M2367 2757 c-5 -39 -75 -153 -154 -252 -58 -74 -138 -273 -172 -429
-47 -217 -172 -627 -207 -681 -18 -27 -18 -28 8 -49 l27 -21 -40 -200 c-86
-431 -157 -826 -151 -843 5 -16 34 -15 79 2 21 8 50 17 66 20 18 4 27 13 27
25 0 11 4 21 9 23 5 2 3 20 -4 42 -25 70 11 281 69 415 94 215 145 399 146
531 0 51 25 218 46 304 14 63 11 87 -5 42 -6 -14 -17 -26 -26 -26 -8 0 -15 -9
-15 -19 0 -14 -5 -18 -19 -14 -14 3 -20 -2 -23 -22 -5 -25 -3 -27 23 -23 27 4
28 4 12 -14 -9 -10 -22 -18 -30 -18 -7 0 -13 -4 -13 -10 0 -5 7 -10 15 -10 10
0 14 -9 11 -31 -4 -37 -17 -52 -39 -43 -19 7 -22 20 -7 29 6 3 10 1 10 -4 0
-6 4 -11 10 -11 5 0 9 11 8 25 -1 14 -3 25 -3 25 0 0 -18 -9 -40 -20 -54 -28
-62 -26 -63 18 -1 23 2 32 7 24 7 -11 10 -10 15 3 9 23 8 25 -9 25 -16 0 -20
16 -6 24 5 3 14 27 20 53 7 27 20 66 30 88 10 22 31 94 46 160 65 289 112 434
163 508 19 27 41 64 48 81 8 17 23 45 34 61 11 17 23 37 26 45 4 8 18 27 32
42 25 27 26 27 51 11 37 -24 200 -32 213 -10 4 9 27 19 51 22 49 8 122 54 122
77 0 9 8 25 18 36 13 15 15 22 7 27 -7 4 -15 3 -19 -2 -3 -5 -22 -15 -41 -23
-19 -7 -42 -19 -50 -25 -8 -7 -28 -16 -45 -19 -110 -26 -188 -13 -233 39 l-30
33 -5 -41z m158 -107 c4 -6 -6 -10 -22 -10 -22 0 -25 2 -13 10 19 12 27 12 35
0z m-567 -1195 c-11 -9 -58 -14 -58 -6 0 10 39 20 53 13 5 -2 7 -5 5 -7z m42
-15 c0 -5 -5 -10 -11 -10 -5 0 -7 5 -4 10 3 6 8 10 11 10 2 0 4 -4 4 -10z"/>
<path d="M183 2663 c-13 -8 -23 -24 -23 -35 0 -16 2 -17 14 -6 8 7 11 17 9 22
-3 5 0 7 8 4 13 -4 39 13 39 26 0 11 -25 5 -47 -11z"/>
<path d="M125 2580 c-3 -5 -1 -10 4 -10 6 0 11 5 11 10 0 6 -2 10 -4 10 -3 0
-8 -4 -11 -10z"/>
<path d="M108 2544 c-3 -11 -2 -28 2 -38 6 -18 7 -18 13 -3 3 9 3 27 -2 39 -7
20 -8 20 -13 2z"/>
<path d="M3218 2420 c6 -8 12 -20 12 -28 0 -19 50 -83 60 -77 12 8 -33 84 -61
102 -14 10 -19 11 -11 3z"/>
<path d="M2951 2165 c-17 -19 -35 -35 -41 -35 -5 0 -10 -4 -10 -9 0 -5 -9 -11
-19 -14 -11 -2 -21 -15 -23 -28 -2 -13 -9 -23 -16 -21 -6 1 -12 -7 -12 -17 0
-23 -16 -36 -25 -22 -3 6 -13 7 -21 4 -9 -3 -20 0 -25 8 -7 11 -11 11 -21 -4
-14 -19 -36 -22 -80 -11 -23 5 -29 2 -39 -20 -15 -32 -29 -34 -29 -3 0 17 -2
19 -9 8 -5 -8 -7 -20 -4 -28 3 -8 -2 -13 -16 -13 -17 0 -21 5 -17 25 6 32 15
47 26 40 4 -3 14 3 21 12 8 10 9 14 2 10 -6 -4 -15 -3 -18 3 -5 8 -11 8 -20 0
-7 -6 -19 -8 -28 -4 -20 7 -23 0 -32 -69 l-7 -58 34 6 c18 2 47 7 64 11 34 6
48 -5 38 -30 -9 -23 -26 -20 -19 4 9 28 -14 26 -24 -2 -7 -18 -5 -24 10 -28
13 -3 16 -9 10 -19 -6 -10 -13 -10 -29 -2 -22 11 -32 -1 -32 -39 0 -39 -55
-36 -63 3 -2 12 -5 1 -6 -25 -1 -35 -6 -51 -21 -61 -13 -9 -18 -20 -14 -31 5
-12 0 -16 -19 -16 -20 0 -25 -4 -22 -20 3 -13 -2 -20 -12 -20 -9 0 -13 6 -9
15 3 9 0 15 -9 15 -8 0 -15 5 -15 10 0 6 7 10 15 10 8 0 15 5 15 10 0 6 -11
10 -25 10 -13 0 -29 8 -34 18 -9 14 -11 12 -12 -13 -1 -24 -3 -21 -9 15 -5 25
-6 56 -3 69 4 16 2 22 -5 17 -7 -4 -14 4 -17 21 -3 15 -12 42 -20 58 -7 17
-16 38 -19 48 -7 22 -26 22 -26 1 0 -14 -3 -14 -15 -4 -13 11 -15 8 -15 -14 0
-14 -9 -49 -20 -78 -24 -65 -17 -77 9 -15 11 25 29 51 40 57 19 9 23 7 32 -17
23 -59 -6 -329 -45 -417 -21 -46 -25 -61 -41 -145 -26 -129 -56 -252 -85 -346
-16 -49 -33 -119 -40 -155 -22 -129 -43 -217 -76 -324 -36 -114 -42 -156 -23
-156 7 0 29 5 50 11 32 10 42 9 63 -5 14 -9 31 -16 39 -16 18 0 137 124 168
175 14 22 37 69 52 105 25 60 60 100 75 86 3 -4 6 -31 6 -60 1 -45 6 -60 28
-83 15 -15 30 -41 34 -56 12 -49 101 -64 162 -27 46 28 61 25 99 -20 30 -35
40 -40 75 -40 28 0 60 10 97 31 135 76 165 119 188 270 16 102 16 103 63 146
26 24 55 61 66 83 20 41 43 51 63 26 7 -8 18 -54 26 -103 7 -48 18 -101 23
-118 6 -16 13 -70 16 -119 10 -146 33 -173 158 -183 l68 -6 0 751 0 751 -52
84 c-74 119 -85 133 -94 124 -7 -7 13 -56 29 -68 4 -3 9 -25 10 -48 2 -43 2
-43 -35 -45 -43 -3 -69 -25 -62 -53 4 -15 12 -19 30 -15 14 2 24 0 24 -7 0 -6
14 -2 33 9 43 26 44 26 42 -17 -2 -24 -10 -43 -25 -55 -20 -16 -20 -18 -4 -18
15 0 16 -2 5 -9 -9 -6 -11 -19 -6 -42 4 -22 3 -29 -3 -20 -7 9 -12 10 -16 2
-11 -16 -43 -13 -50 5 -9 23 3 36 25 29 22 -7 23 -2 9 26 -7 13 -7 19 0 19 5
0 10 8 10 19 0 15 -7 18 -37 16 -53 -3 -53 -3 -47 -20 7 -17 -17 -19 -81 -6
l-40 8 33 8 c17 4 32 11 32 15 0 5 -9 6 -20 3 -14 -4 -20 0 -20 10 0 9 -9 19
-20 22 -27 9 -25 17 9 37 29 16 30 16 46 -8 16 -25 35 -28 42 -7 2 6 -5 14
-17 18 -16 5 -18 10 -10 20 12 14 -9 23 -67 30 -61 7 -107 59 -72 81 7 4 -3
18 -25 36 -20 16 -36 36 -36 45 0 12 -8 14 -39 9 -29 -4 -40 -2 -45 9 -8 23
-21 18 -55 -20z m79 -135 c0 -5 -9 -10 -20 -10 -11 0 -20 5 -20 10 0 6 9 10
20 10 11 0 20 -4 20 -10z m-367 -50 c6 -23 -10 -37 -24 -23 -10 10 -2 43 11
43 4 0 10 -9 13 -20z m632 -160 c3 -5 1 -10 -4 -10 -6 0 -11 5 -11 10 0 6 2
10 4 10 3 0 8 -4 11 -10z m60 1 c7 -12 -12 -24 -25 -16 -11 7 -4 25 10 25 5 0
11 -4 15 -9z m-832 -55 c3 -8 -1 -20 -9 -26 -8 -7 -14 -9 -14 -4 0 5 -4 3 -9
-4 -5 -9 -8 -3 -9 17 0 24 4 31 18 31 10 0 20 -6 23 -14z m987 -7 c0 -5 -7 -9
-15 -9 -15 0 -20 12 -9 23 8 8 24 -1 24 -14z m-250 -19 c0 -5 -9 -10 -21 -10
-11 0 -17 5 -14 10 3 6 13 10 21 10 8 0 14 -4 14 -10z m103 -19 c-4 -15 -8
-19 -13 -10 -5 6 -3 18 3 24 16 17 17 14 10 -14z m-1041 -66 c-2 -14 -1 -25 4
-24 25 4 38 -1 27 -12 -10 -10 -19 -7 -62 18 -4 3 29 43 34 43 1 0 0 -11 -3
-25z m-16 -60 c4 -8 3 -23 0 -32 -6 -14 -9 -12 -21 11 -18 35 -18 36 0 36 9 0
18 -7 21 -15z m48 -4 c3 -5 -1 -12 -10 -15 -20 -8 -29 -1 -19 13 8 13 22 14
29 2z m-7 -474 c-12 -119 -75 -297 -130 -372 -20 -27 -25 -20 -31 45 -7 78 42
218 120 342 35 54 48 49 41 -15z"/>
<path d="M3180 2061 c0 -11 31 -24 39 -16 3 3 -1 10 -9 15 -19 12 -30 12 -30
1z"/>
<path d="M3307 2053 c-12 -11 -8 -23 8 -23 8 0 15 7 15 15 0 16 -12 20 -23 8z"/>
<path d="M3265 2041 c-3 -5 3 -17 12 -27 13 -13 18 -14 22 -3 2 7 -1 15 -8 17
-6 2 -9 8 -5 13 3 5 1 9 -5 9 -5 0 -12 -4 -16 -9z"/>
<path d="M3361 2014 c0 -11 3 -14 6 -6 3 7 2 16 -1 19 -3 4 -6 -2 -5 -13z"/>
<path d="M2136 1765 c-3 -9 -6 -22 -5 -28 0 -7 5 -1 10 12 5 13 8 26 5 28 -2
2 -6 -3 -10 -12z"/>
</g>
</svg>
