<?xml version="1.0" standalone="no"?>
<!DOCTYPE svg PUBLIC "-//W3C//DTD SVG 20010904//EN"
 "http://www.w3.org/TR/2001/REC-SVG-20010904/DTD/svg10.dtd">
<svg version="1.0" xmlns="http://www.w3.org/2000/svg"
 width="381.000000pt" height="655.000000pt" viewBox="0 0 381.000000 655.000000"
 preserveAspectRatio="xMidYMid meet">

<g transform="translate(0.000000,655.000000) scale(0.100000,-0.100000)"
fill="#000000" stroke="none">
<path d="M1672 6254 c-22 -15 -31 -54 -11 -54 5 0 8 4 5 9 -9 14 4 39 17 37
40 -6 50 -42 15 -49 -17 -3 -14 -5 10 -6 34 -1 39 8 22 39 -9 17 -8 18 7 13
16 -6 16 -5 4 10 -17 21 -40 22 -69 1z"/>
<path d="M2133 6218 c-12 -13 -23 -34 -25 -48 -3 -22 1 -25 32 -27 19 -1 28 1
19 3 -9 3 -21 16 -27 29 -11 24 -10 25 28 31 24 4 40 12 40 20 0 22 -44 16
-67 -8z"/>
<path d="M1786 5941 c-3 -4 -31 -13 -63 -20 -61 -14 -142 -53 -168 -81 -8 -9
-16 -32 -18 -51 -2 -33 -4 -34 -62 -45 -72 -14 -31 -18 46 -5 30 6 90 12 134
15 109 8 311 24 420 35 70 7 49 8 -90 4 -99 -3 -191 -5 -205 -4 -14 1 -51 3
-82 4 -83 3 -92 18 -42 68 38 38 46 41 109 46 97 7 130 -2 176 -48 22 -22 44
-37 50 -33 6 4 6 11 -3 21 -7 8 -17 25 -23 37 -7 13 -25 24 -50 30 -22 4 -59
14 -82 22 -24 7 -45 9 -47 5z m-209 -136 c-4 -8 -11 -15 -17 -15 -7 0 -7 6 0
21 13 23 26 19 17 -6z"/>
<path d="M1700 5860 c0 -5 7 -10 16 -10 8 0 12 5 9 10 -3 6 -10 10 -16 10 -5
0 -9 -4 -9 -10z"/>
<path d="M2528 5803 c12 -2 32 -2 45 0 12 2 2 4 -23 4 -25 0 -35 -2 -22 -4z"/>
<path d="M2780 5796 c0 -8 61 -12 66 -4 3 4 -11 8 -30 8 -20 0 -36 -2 -36 -4z"/>
<path d="M2877 5779 c7 -7 15 -10 18 -7 3 3 -2 9 -12 12 -14 6 -15 5 -6 -5z"/>
<path d="M2910 5736 c0 -8 5 -18 10 -21 6 -3 10 1 10 9 0 8 -4 18 -10 21 -5 3
-10 -1 -10 -9z"/>
<path d="M1358 5723 c12 -2 30 -2 40 0 9 3 -1 5 -23 4 -22 0 -30 -2 -17 -4z"/>
<path d="M1185 5703 c-70 -10 -216 -43 -249 -57 -20 -8 -36 -22 -36 -30 0 -9
-4 -16 -9 -16 -5 0 -14 -23 -20 -50 -16 -72 -14 -73 14 -6 25 61 35 73 70 80
108 23 245 60 265 71 25 14 20 15 -35 8z"/>
<path d="M2931 5675 c0 -11 6 -33 14 -50 l14 -30 -6 35 c-7 44 -22 75 -22 45z"/>
<path d="M1658 5593 c6 -2 18 -2 25 0 6 3 1 5 -13 5 -14 0 -19 -2 -12 -5z"/>
<path d="M2345 5590 c4 -6 11 -8 16 -5 14 9 11 15 -7 15 -8 0 -12 -5 -9 -10z"/>
<path d="M1521 5579 c-56 -10 -80 -19 -45 -19 10 1 48 7 84 14 73 15 44 19
-39 5z"/>
<path d="M1428 5553 c7 -3 16 -2 19 1 4 3 -2 6 -13 5 -11 0 -14 -3 -6 -6z"/>
<path d="M2370 5554 c0 -15 27 -50 34 -43 4 3 -2 17 -13 30 -11 13 -20 19 -21
13z"/>
<path d="M2643 5552 c-17 -2 -23 -10 -23 -30 0 -24 1 -25 14 -7 9 13 27 19 62
20 101 4 117 5 112 11 -7 6 -133 11 -165 6z"/>
<path d="M2831 5514 c0 -11 3 -14 6 -6 3 7 2 16 -1 19 -3 4 -6 -2 -5 -13z"/>
<path d="M1273 5500 c-13 -5 -23 -14 -23 -20 0 -15 9 -12 37 10 27 21 22 24
-14 10z"/>
<path d="M2431 5460 c-1 -3 9 -33 21 -65 14 -41 23 -92 26 -160 2 -55 9 -104
14 -110 17 -16 1 235 -16 254 -8 9 -21 32 -29 51 -9 19 -16 33 -16 30z"/>
<path d="M1200 5430 c0 -5 5 -10 10 -10 6 0 10 5 10 10 0 6 -4 10 -10 10 -5 0
-10 -4 -10 -10z"/>
<path d="M1202 5385 c-7 -15 -11 -30 -8 -32 7 -7 28 36 24 49 -2 6 -9 -2 -16
-17z"/>
<path d="M2856 5330 c4 -47 12 -107 20 -135 l13 -50 0 44 c1 43 -26 211 -35
221 -3 2 -2 -34 2 -80z"/>
<path d="M2984 5340 c3 -14 8 -75 12 -135 4 -61 9 -112 12 -115 9 -10 -7 225
-17 250 l-11 25 4 -25z"/>
<path d="M2647 5200 c3 -58 7 -107 9 -109 7 -7 2 101 -6 159 -6 39 -7 24 -3
-50z"/>
<path d="M843 5215 c0 -44 2 -61 4 -37 2 23 2 59 0 80 -2 20 -4 1 -4 -43z"/>
<path d="M2805 5190 c3 -5 11 -10 16 -10 6 0 7 5 4 10 -3 6 -11 10 -16 10 -6
0 -7 -4 -4 -10z"/>
<path d="M2760 5179 c0 -5 5 -7 10 -4 6 3 10 8 10 11 0 2 -4 4 -10 4 -5 0 -10
-5 -10 -11z"/>
<path d="M2892 5105 c0 -16 2 -22 5 -12 2 9 2 23 0 30 -3 6 -5 -1 -5 -18z"/>
<path d="M3000 5035 c0 -27 3 -45 7 -41 7 7 5 77 -3 85 -2 2 -4 -17 -4 -44z"/>
<path d="M2662 5025 c-1 -22 3 -58 7 -80 8 -34 9 -36 9 -10 0 17 -3 53 -8 80
-7 49 -7 49 -8 10z"/>
<path d="M2903 5000 c0 -36 2 -50 4 -32 2 17 2 47 0 65 -2 17 -4 3 -4 -33z"/>
<path d="M843 4985 c0 -38 2 -53 4 -32 2 20 2 52 0 70 -2 17 -4 1 -4 -38z"/>
<path d="M2770 4983 c0 -13 38 -38 47 -30 3 3 2 15 -2 26 -6 21 -45 25 -45 4z"/>
<path d="M1142 4960 c0 -14 2 -19 5 -12 2 6 2 18 0 25 -3 6 -5 1 -5 -13z"/>
<path d="M1142 4910 c0 -14 2 -19 5 -12 2 6 2 18 0 25 -3 6 -5 1 -5 -13z"/>
<path d="M2830 4890 c-33 -11 -46 -19 -32 -19 34 -1 112 20 112 30 0 13 -17
10 -80 -11z"/>
<path d="M851 4760 c-1 -100 18 -342 28 -358 3 -5 22 -12 41 -15 l35 -7 -29
24 c-20 17 -24 25 -15 29 11 5 11 8 -2 19 -23 19 -30 55 -44 238 -12 155 -12
159 -14 70z"/>
<path d="M2425 4788 c-11 -16 -12 -24 -4 -27 12 -4 39 25 39 41 0 16 -19 8
-35 -14z"/>
<path d="M3002 4770 c0 -19 2 -27 5 -17 2 9 2 25 0 35 -3 9 -5 1 -5 -18z"/>
<path d="M1187 4700 c-4 -14 5 -25 32 -42 33 -21 49 -23 218 -26 101 -2 189 0
197 5 8 4 -72 8 -178 8 -167 0 -195 2 -219 18 -15 9 -27 24 -27 32 0 22 -17
27 -23 5z"/>
<path d="M1668 4653 c7 -3 16 -2 19 1 4 3 -2 6 -13 5 -11 0 -14 -3 -6 -6z"/>
<path d="M2917 4602 c-32 -8 -56 -16 -54 -19 8 -7 87 10 104 23 10 7 16 13 13
12 -3 0 -31 -7 -63 -16z"/>
<path d="M2750 4569 c-25 -5 -83 -16 -130 -24 l-85 -14 75 4 c64 4 203 27 235
40 19 7 -50 3 -95 -6z"/>
<path d="M2378 4523 c12 -2 30 -2 40 0 9 3 -1 5 -23 4 -22 0 -30 -2 -17 -4z"/>
<path d="M2468 4523 c7 -3 16 -2 19 1 4 3 -2 6 -13 5 -11 0 -14 -3 -6 -6z"/>
<path d="M2418 4503 c6 -2 18 -2 25 0 6 3 1 5 -13 5 -14 0 -19 -2 -12 -5z"/>
<path d="M2268 4473 c7 -3 16 -2 19 1 4 3 -2 6 -13 5 -11 0 -14 -3 -6 -6z"/>
<path d="M1728 4453 c6 -2 18 -2 25 0 6 3 1 5 -13 5 -14 0 -19 -2 -12 -5z"/>
<path d="M1667 4430 c3 -12 14 -20 25 -20 16 0 18 3 9 13 -6 8 -8 17 -4 20 3
4 -3 7 -14 7 -16 0 -20 -5 -16 -20z"/>
<path d="M1588 4433 c12 -2 32 -2 45 0 12 2 2 4 -23 4 -25 0 -35 -2 -22 -4z"/>
<path d="M1513 4423 c9 -2 25 -2 35 0 9 3 1 5 -18 5 -19 0 -27 -2 -17 -5z"/>
<path d="M1770 4420 c0 -5 5 -10 10 -10 6 0 10 5 10 10 0 6 -4 10 -10 10 -5 0
-10 -4 -10 -10z"/>
<path d="M1303 4403 c9 -2 25 -2 35 0 9 3 1 5 -18 5 -19 0 -27 -2 -17 -5z"/>
<path d="M1228 4393 c7 -3 16 -2 19 1 4 3 -2 6 -13 5 -11 0 -14 -3 -6 -6z"/>
<path d="M1158 4383 c6 -2 18 -2 25 0 6 3 1 5 -13 5 -14 0 -19 -2 -12 -5z"/>
<path d="M1987 4263 c-18 -9 -65 -16 -131 -18 -122 -3 -152 -16 -184 -77 l-23
-43 23 28 c13 15 29 27 36 27 7 0 12 5 12 11 0 5 10 9 23 7 14 -2 21 2 19 10
-1 9 5 10 23 6 14 -3 31 -1 38 4 7 6 53 12 102 14 61 2 96 8 107 17 13 11 15
17 5 23 -15 9 -15 9 -50 -9z"/>
<path d="M2070 4232 c0 -5 7 -15 15 -22 8 -7 15 -8 15 -2 0 5 -7 15 -15 22 -8
7 -15 8 -15 2z"/>
<path d="M1920 4214 c-8 -1 -41 -6 -73 -9 -31 -4 -55 -11 -52 -16 9 -14 52
-10 130 11 58 16 54 27 -5 14z"/>
<path d="M2250 4006 c0 -2 5 -17 11 -35 12 -33 14 -34 42 -23 15 7 16 9 2 28
-11 17 -55 40 -55 30z"/>
<path d="M2440 3811 c0 -5 5 -13 10 -16 6 -3 10 -2 10 4 0 5 -4 13 -10 16 -5
3 -10 2 -10 -4z"/>
<path d="M2381 3705 c1 -19 18 -51 18 -35 0 8 -4 22 -9 30 -5 8 -9 11 -9 5z"/>
<path d="M2485 3640 c-8 -13 -1 -24 14 -19 6 3 7 10 2 18 -6 10 -10 10 -16 1z"/>
<path d="M2420 3580 c0 -11 5 -20 10 -20 6 0 10 9 10 20 0 11 -4 20 -10 20 -5
0 -10 -9 -10 -20z"/>
<path d="M1250 3441 c0 -6 5 -13 10 -16 6 -3 10 1 10 9 0 9 -4 16 -10 16 -5 0
-10 -4 -10 -9z"/>
<path d="M1310 3412 c0 -2 9 -15 20 -29 14 -18 20 -21 20 -10 0 8 2 21 5 29 4
9 -3 13 -20 13 -14 0 -25 -2 -25 -3z"/>
<path d="M1261 3384 c0 -11 3 -14 6 -6 3 7 2 16 -1 19 -3 4 -6 -2 -5 -13z"/>
<path d="M1301 3194 c0 -11 3 -14 6 -6 3 7 2 16 -1 19 -3 4 -6 -2 -5 -13z"/>
<path d="M2400 3020 c0 -5 7 -7 15 -4 8 4 15 8 15 10 0 2 -7 4 -15 4 -8 0 -15
-4 -15 -10z"/>
<path d="M2328 2994 c-42 -22 -34 -26 15 -7 51 20 56 23 31 23 -10 -1 -31 -8
-46 -16z"/>
<path d="M1260 2891 c0 -5 14 -13 31 -16 18 -4 52 -25 76 -48 40 -37 43 -38
34 -14 -9 23 -7 28 11 38 19 10 16 13 -33 30 -58 20 -119 25 -119 10z"/>
<path d="M2720 2812 c0 -5 5 -23 11 -41 9 -25 8 -36 -5 -56 -22 -34 -20 -43 4
-17 16 17 20 32 17 69 -3 26 -10 49 -16 51 -6 2 -11 -1 -11 -6z"/>
<path d="M1376 2781 c-4 -7 -5 -15 -2 -18 9 -9 19 4 14 18 -4 11 -6 11 -12 0z"/>
<path d="M1443 2712 c0 -11 9 -25 20 -31 17 -11 17 -11 1 16 -10 15 -19 30
-20 32 -2 2 -2 -6 -1 -17z"/>
<path d="M1015 2550 c-4 -14 -1 -28 9 -39 9 -10 16 -22 16 -28 0 -6 8 -17 17
-24 13 -11 15 -11 9 -1 -4 7 -11 34 -14 59 -8 50 -26 67 -37 33z"/>
<path d="M2040 2500 c-13 -8 -12 -10 3 -10 9 0 17 5 17 10 0 12 -1 12 -20 0z"/>
<path d="M2580 2486 c0 -9 5 -16 10 -16 6 0 10 4 10 9 0 6 -4 13 -10 16 -5 3
-10 -1 -10 -9z"/>
<path d="M2065 2480 c-3 -5 1 -10 9 -10 8 0 18 5 21 10 3 6 -1 10 -9 10 -8 0
-18 -4 -21 -10z"/>
<path d="M1823 2453 c4 -3 7 -12 8 -21 0 -11 2 -12 6 -4 2 6 9 12 14 12 6 0 7
-4 4 -10 -3 -5 0 -10 8 -10 7 0 14 7 14 15 0 8 -8 15 -18 15 -9 0 -23 2 -31 3
-7 2 -10 2 -5 0z"/>
<path d="M1905 2450 c-19 -8 -19 -9 3 -9 12 -1 22 4 22 9 0 6 -1 10 -2 9 -2 0
-12 -4 -23 -9z"/>
<path d="M1086 2407 c3 -10 9 -15 12 -12 3 3 0 11 -7 18 -10 9 -11 8 -5 -6z"/>
<path d="M2646 2412 c-9 -15 -46 -165 -46 -186 0 -14 10 -4 32 33 23 39 28 55
18 61 -9 6 -8 14 4 38 9 17 16 38 16 47 0 16 -15 21 -24 7z"/>
<path d="M1805 2401 c-7 -13 -35 -104 -32 -107 1 -1 14 22 29 52 14 30 22 56
18 59 -5 3 -11 1 -15 -4z"/>
<path d="M1096 2343 c-9 -55 25 -144 43 -114 7 11 -19 135 -32 147 -3 3 -8
-12 -11 -33z"/>
<path d="M1016 2285 c10 -59 24 -89 17 -35 -3 25 -10 52 -15 60 -5 9 -6 0 -2
-25z"/>
<path d="M1864 2193 c6 -53 50 -236 54 -225 1 5 -5 48 -14 94 -9 45 -19 100
-21 121 -3 20 -9 37 -14 37 -5 0 -7 -12 -5 -27z"/>
<path d="M1155 2200 c-2 -4 7 -18 22 -31 21 -19 25 -21 20 -6 -4 10 -7 24 -7
31 0 13 -28 18 -35 6z"/>
<path d="M1040 2178 c0 -15 5 -30 10 -33 13 -8 13 25 0 45 -8 12 -10 9 -10
-12z"/>
<path d="M1060 2106 c0 -14 38 -86 45 -86 2 0 -3 20 -12 45 -15 46 -33 68 -33
41z"/>
<path d="M1146 2048 c5 -58 -1 -69 -25 -45 -14 13 10 -40 37 -81 11 -17 18
-20 28 -11 8 6 11 16 8 21 -4 5 -13 33 -21 61 -32 113 -33 115 -27 55z"/>
<path d="M2113 2040 c0 -30 2 -43 4 -27 2 15 2 39 0 55 -2 15 -4 2 -4 -28z"/>
<path d="M1922 1930 c0 -14 2 -19 5 -12 2 6 2 18 0 25 -3 6 -5 1 -5 -13z"/>
<path d="M2101 1829 c0 -36 2 -113 5 -170 l7 -104 56 -3 c30 -2 92 -12 136
-23 44 -10 94 -19 111 -19 18 0 62 -9 99 -21 36 -11 72 -18 78 -16 18 6 -48
37 -75 35 -22 -1 -45 3 -258 53 -152 35 -140 24 -141 131 -1 51 -4 118 -9 148
l-7 55 -2 -66z"/>
<path d="M1909 1835 c-44 -68 -71 -131 -67 -155 2 -17 13 -26 43 -35 81 -24
81 -24 89 -130 3 -53 4 -100 1 -105 -3 -4 -22 1 -42 11 -37 19 -106 27 -88 10
6 -4 37 -17 70 -29 33 -11 68 -23 79 -28 17 -7 18 -4 12 42 -5 35 -4 45 3 34
9 -13 11 -12 11 4 0 24 -59 288 -66 296 -3 3 -4 -20 -2 -50 3 -50 1 -55 -17
-52 -33 6 -65 31 -65 53 0 27 36 96 56 107 10 6 14 19 12 38 l-3 29 -26 -40z"/>
<path d="M1582 1763 c-19 -51 -30 -97 -59 -235 -5 -24 -2 -27 49 -41 69 -20
142 -35 198 -42 37 -4 31 0 -35 21 -44 14 -91 31 -104 37 -13 7 -29 12 -35 13
-6 0 -18 2 -28 2 -24 3 -16 108 17 206 31 93 29 126 -3 39z"/>
<path d="M1941 1774 c0 -11 3 -14 6 -6 3 7 2 16 -1 19 -3 4 -6 -2 -5 -13z"/>
<path d="M2768 1592 c-65 -26 -137 -80 -139 -105 -1 -6 -3 -28 -5 -47 -2 -19
-3 -48 -3 -64 l0 -29 -71 7 c-38 3 -70 4 -70 2 0 -3 34 -10 75 -17 64 -10 79
-16 95 -40 19 -26 58 -139 96 -279 9 -36 23 -74 29 -85 7 -11 25 -65 40 -120
38 -137 45 -155 64 -156 62 -6 103 -4 151 9 30 8 104 16 163 18 59 2 112 6
117 9 5 3 47 12 93 19 88 15 180 11 174 -7 -3 -11 -77 -30 -172 -44 l-50 -8
50 -3 c28 -2 78 1 110 7 33 5 67 5 75 1 19 -11 14 -13 -101 -36 -14 -3 -31
-14 -37 -25 -11 -17 -9 -19 13 -19 14 0 25 4 25 9 0 5 44 9 98 9 65 1 109 6
134 16 21 9 49 16 63 16 21 0 25 5 25 30 0 17 -4 30 -10 30 -5 0 -9 5 -7 12 1
7 -11 15 -28 19 -19 4 -23 7 -10 8 11 1 26 5 34 10 13 8 13 12 1 27 -12 14
-26 16 -85 11 -121 -10 -324 -36 -480 -62 -82 -13 -184 -25 -225 -27 l-75 -3
2 40 c1 22 -1 34 -4 28 -7 -18 -30 -16 -37 3 -8 21 -8 223 0 263 7 34 20 41
28 14 3 -10 2 115 -1 277 -3 162 -7 298 -10 303 -9 14 -69 5 -135 -21z m49
-34 c14 -18 53 -778 40 -778 -12 0 -27 40 -42 110 -8 39 -34 119 -56 178 -41
106 -41 108 -44 257 -4 186 0 211 34 230 33 18 56 19 68 3z m70 -20 c-3 -7 -5
-2 -5 12 0 14 2 19 5 13 2 -7 2 -19 0 -25z m10 -300 c-2 -35 -3 -9 -3 57 0 66
1 94 3 63 2 -32 2 -86 0 -120z"/>
<path d="M2140 1388 c0 -3 53 -9 118 -12 64 -4 129 -9 144 -11 20 -3 26 -1 22
9 -3 8 2 16 13 19 10 3 -53 5 -139 4 -87 -1 -158 -5 -158 -9z"/>
<path d="M2478 1393 c6 -2 18 -2 25 0 6 3 1 5 -13 5 -14 0 -19 -2 -12 -5z"/>
<path d="M2051 1023 c0 -4 4 -17 9 -28 8 -19 9 -19 9 2 1 12 -3 25 -9 28 -5 3
-10 3 -9 -2z"/>
<path d="M2066 951 c-11 -17 -140 -72 -251 -108 -122 -39 -423 -156 -470 -182
-16 -9 -59 -27 -94 -40 -36 -13 -112 -47 -170 -76 -58 -28 -122 -58 -141 -65
-19 -7 -42 -19 -51 -27 -8 -7 -20 -13 -25 -13 -5 0 -17 -8 -26 -19 -16 -18
-115 -37 -318 -60 -41 -5 -100 -16 -130 -25 -30 -9 -74 -19 -98 -23 -56 -7
-62 -20 -18 -38 19 -8 39 -22 44 -30 11 -21 212 -27 219 -7 3 6 -2 12 -10 12
-8 0 -17 9 -20 20 -5 19 -1 20 71 18 84 -2 172 18 172 38 0 7 10 19 23 25 12
6 31 20 42 30 13 12 49 21 110 29 108 13 378 54 492 75 45 8 108 15 140 15 83
0 307 27 378 46 33 9 98 18 145 20 50 2 110 12 144 24 33 11 78 20 102 20 24
0 46 5 49 10 4 6 -15 10 -50 10 -50 0 -57 3 -67 26 -10 22 -9 32 10 67 21 40
21 45 8 102 -23 96 -33 115 -58 115 -44 -1 -127 8 -137 14 -5 4 -12 2 -15 -3z
m146 -58 c39 -45 48 -131 20 -177 -15 -25 -30 -32 -92 -48 -41 -10 -88 -18
-105 -18 -16 0 -106 -11 -200 -25 -93 -14 -208 -30 -255 -36 -100 -13 -198
-31 -295 -55 -112 -27 -145 -29 -145 -10 0 9 8 19 18 22 39 13 182 87 193 100
6 8 15 11 20 9 4 -3 48 11 96 30 48 20 117 45 153 57 65 20 177 61 215 78 47
21 164 51 210 54 28 2 68 11 90 19 52 20 59 20 77 0z m-12 -262 c0 -9 -48 -21
-79 -21 -25 1 30 29 57 30 12 0 22 -4 22 -9z m-245 -50 c-6 -5 -55 -11 -110
-15 l-100 -6 65 16 c36 9 81 19 100 23 37 8 61 -2 45 -18z m-412 -48 c-7 -2
-21 -2 -30 0 -10 3 -4 5 12 5 17 0 24 -2 18 -5z m-820 -180 c-7 -2 -19 -2 -25
0 -7 3 -2 5 12 5 14 0 19 -2 13 -5z"/>
<path d="M2598 633 c12 -2 30 -2 40 0 9 3 -1 5 -23 4 -22 0 -30 -2 -17 -4z"/>
<path d="M2425 620 c-18 -8 -18 -9 5 -9 14 0 32 4 40 9 12 8 12 10 -5 9 -11 0
-29 -4 -40 -9z"/>
<path d="M3366 594 c-9 -23 -8 -24 22 -24 35 0 45 9 31 27 -15 18 -46 17 -53
-3z"/>
<path d="M2818 573 c6 -2 18 -2 25 0 6 3 1 5 -13 5 -14 0 -19 -2 -12 -5z"/>
<path d="M2518 523 c12 -2 30 -2 40 0 9 3 -1 5 -23 4 -22 0 -30 -2 -17 -4z"/>
</g>
</svg>
