<?xml version="1.0" standalone="no"?>
<!DOCTYPE svg PUBLIC "-//W3C//DTD SVG 20010904//EN"
 "http://www.w3.org/TR/2001/REC-SVG-20010904/DTD/svg10.dtd">
<svg version="1.0" xmlns="http://www.w3.org/2000/svg"
 width="355.000000pt" height="703.000000pt" viewBox="0 0 355.000000 703.000000"
 preserveAspectRatio="xMidYMid meet">

<g transform="translate(0.000000,703.000000) scale(0.100000,-0.100000)"
fill="#000000" stroke="none">
<path d="M840 6451 c-5 -11 -10 -47 -10 -80 0 -34 -4 -61 -9 -61 -5 0 -15 26
-21 58 -17 89 -19 91 -41 63 -10 -13 -19 -38 -19 -55 0 -52 -13 -51 -37 4 -23
53 -38 62 -48 30 -7 -22 -26 -25 -56 -9 -26 13 -59 2 -59 -20 0 -10 11 -28 25
-41 37 -35 33 -54 -9 -46 -24 5 -39 2 -50 -9 -20 -21 -21 -51 0 -59 31 -12
111 -6 124 9 17 21 47 19 59 -4 14 -26 5 -31 -43 -25 -34 5 -45 2 -61 -16
l-20 -22 24 -19 c15 -12 39 -19 67 -19 47 0 62 -11 39 -30 -23 -19 -2 -46 49
-61 44 -13 44 -14 43 -53 l-2 -41 75 -13 c41 -7 94 -11 117 -8 40 5 45 3 98
-47 31 -28 78 -72 105 -96 28 -24 50 -48 50 -53 0 -6 14 -27 30 -48 32 -40 38
-60 18 -60 -7 0 -52 7 -100 17 -84 16 -89 16 -108 -2 -23 -21 -23 -54 0 -66 8
-4 77 -12 153 -17 123 -9 142 -13 163 -33 13 -12 24 -31 24 -41 0 -22 -3 -22
-38 -4 -15 7 -67 24 -116 36 -81 20 -90 21 -105 6 -39 -40 34 -75 165 -79 46
-1 84 -6 84 -10 0 -4 -33 -24 -72 -43 -186 -90 -281 -206 -319 -388 -11 -49
-19 -100 -19 -113 0 -30 -24 -39 -66 -24 -48 17 -76 -5 -109 -87 -23 -57 -26
-76 -21 -130 6 -70 32 -117 74 -133 27 -11 109 -2 118 12 3 5 16 9 29 9 17 0
30 -12 48 -43 63 -107 231 -216 444 -288 101 -34 129 -39 205 -39 l88 0 0 -41
c0 -92 -44 -165 -126 -207 -19 -10 -58 -47 -85 -83 -27 -35 -96 -111 -152
-169 -231 -238 -289 -304 -309 -349 -34 -77 -49 -102 -107 -191 -30 -47 -79
-125 -108 -173 -29 -49 -66 -105 -82 -125 -61 -79 -171 -277 -240 -437 -122
-284 -175 -420 -193 -494 -11 -47 -23 -95 -28 -106 -28 -69 -65 -213 -57 -221
2 -2 9 14 16 36 7 23 19 44 27 47 8 3 14 18 14 34 0 16 5 29 10 29 6 0 10 -12
10 -27 -1 -62 8 -144 18 -170 6 -15 25 -86 42 -158 50 -202 143 -391 295 -600
101 -138 141 -173 300 -263 133 -75 231 -111 392 -143 174 -35 410 -48 545
-30 112 15 365 72 471 106 331 107 690 397 810 655 76 164 95 243 123 520 17
160 17 180 1 347 -9 98 -21 203 -27 233 -5 30 -17 96 -25 147 -10 62 -34 137
-71 230 -49 122 -56 149 -65 243 -10 114 -10 118 -62 297 -39 135 -90 245
-145 313 -116 142 -352 351 -540 477 -63 43 -201 112 -257 129 -25 8 -34 20
-53 74 -31 87 -42 123 -42 136 0 6 36 35 79 63 59 38 92 69 129 119 51 69 152
244 152 263 0 6 -14 9 -31 7 -28 -3 -36 -12 -73 -80 -71 -132 -122 -188 -248
-271 -63 -41 -130 -79 -150 -86 -23 -8 -85 -10 -184 -7 -125 4 -163 9 -234 31
-132 42 -265 115 -337 185 -79 76 -108 126 -134 231 -17 69 -20 101 -15 180 7
117 24 175 70 245 48 71 111 128 210 189 114 70 152 87 164 72 34 -45 148
-377 138 -403 -4 -11 -12 -14 -24 -9 -37 17 -85 16 -150 -1 -112 -29 -168 -67
-204 -137 -28 -56 -21 -175 14 -239 36 -66 101 -97 201 -98 80 0 105 7 143 42
20 18 23 18 38 3 9 -9 16 -27 16 -40 0 -39 41 -59 117 -57 72 2 117 19 205 76
85 54 96 85 53 149 -14 20 -23 42 -20 47 4 6 32 10 63 9 98 -3 202 32 249 83
28 30 77 115 94 161 15 42 18 43 85 21 54 -18 84 -40 84 -61 0 -16 -14 -17
-41 -2 -45 24 -79 -20 -43 -56 9 -9 20 -32 24 -52 7 -29 5 -41 -11 -61 -32
-41 -14 -37 53 11 110 79 130 113 102 172 -25 53 -134 124 -208 134 -37 6 -40
9 -57 59 -37 108 -147 200 -280 233 -37 10 -84 26 -106 37 -41 20 -129 41
-284 66 -110 18 -155 20 -164 6 -12 -19 -43 -10 -69 21 l-26 31 19 32 c20 32
51 202 51 277 0 72 -29 111 -51 68 -4 -8 -13 -48 -19 -89 -21 -131 -36 -194
-47 -197 -7 -3 -20 8 -29 22 -16 25 -16 28 0 56 24 41 34 275 13 303 -19 26
-43 15 -52 -23 -11 -51 -22 -35 -29 41 -7 81 -24 110 -50 88 -9 -7 -16 -21
-16 -31 0 -41 -18 -16 -22 32 -3 28 -12 57 -21 66 -13 14 -17 13 -37 -7 -16
-16 -20 -28 -15 -51 4 -18 3 -29 -4 -29 -6 0 -11 16 -11 35 0 46 -26 109 -41
99 -21 -13 -39 -74 -39 -134 0 -36 -4 -60 -11 -60 -14 0 -79 50 -79 61 0 5 9
18 20 29 24 24 25 59 5 127 -30 101 -67 94 -75 -15 -6 -74 -25 -92 -53 -49
-13 20 -13 30 -1 76 13 51 7 152 -12 214 -7 23 -31 22 -44 -2z m-25 -321 c15
-17 16 -20 3 -25 -20 -8 -81 8 -85 22 -4 11 15 19 48 22 9 0 24 -8 34 -19z
m110 -111 c11 -16 -2 -22 -32 -15 -21 6 -24 9 -12 17 19 12 36 11 44 -2z m263
-77 c4 -42 -21 -53 -47 -21 -20 24 -20 24 2 41 29 23 41 18 45 -20z m70 -99
c-4 -22 -22 -20 -26 1 -2 10 3 16 13 16 10 0 15 -7 13 -17z m107 -35 c7 -17
-9 -71 -21 -75 -11 -4 -74 46 -74 58 0 5 10 9 23 9 12 0 29 5 37 10 20 13 30
12 35 -2z m421 -427 c16 -6 55 -15 87 -21 36 -7 57 -16 57 -25 0 -8 -23 -37
-50 -65 -67 -68 -120 -153 -129 -204 -9 -58 -34 -60 -54 -4 -48 134 -69 226
-58 245 5 10 5 26 0 41 -5 13 -7 28 -3 33 7 12 113 12 150 0z m397 -117 c60
-20 140 -95 167 -157 17 -39 20 -58 14 -110 -13 -123 -48 -161 -185 -203 -131
-40 -217 -26 -285 48 -47 49 -66 95 -72 169 -4 59 -1 73 23 117 35 64 92 120
141 137 53 19 140 18 197 -1z m-629 -373 c40 -16 76 -88 76 -152 0 -100 -60
-169 -152 -177 -65 -5 -145 27 -153 62 -19 79 -21 117 -9 151 6 20 14 37 16
38 1 1 15 13 30 26 26 23 116 59 150 60 9 1 28 -3 42 -8z m269 -74 c49 -55 50
-58 32 -77 -17 -19 -17 -21 26 -63 24 -24 51 -46 59 -49 13 -4 13 -7 1 -21 -7
-10 -19 -17 -26 -17 -6 0 -26 -7 -43 -16 -17 -8 -49 -14 -69 -12 l-38 3 -1
105 c-1 58 -7 125 -12 149 -19 80 0 80 71 -2z m782 -17 c-3 -5 -10 -10 -16
-10 -5 0 -9 5 -9 10 0 6 7 10 16 10 8 0 12 -4 9 -10z m-1618 -85 c7 -33 18
-80 23 -104 14 -57 -1 -79 -36 -56 -13 8 -34 15 -47 15 -31 0 -60 32 -55 62 2
18 10 24 36 26 28 3 32 7 32 32 0 19 -9 35 -26 49 -33 26 -22 43 24 39 36 -3
36 -4 49 -63z m1031 -572 c16 -29 33 -126 25 -134 -11 -11 -186 -29 -196 -20
-8 8 8 113 23 149 9 20 17 22 74 22 52 0 67 -4 74 -17z m122 -239 c0 -8 -4
-12 -10 -9 -5 3 -10 10 -10 16 0 5 5 9 10 9 6 0 10 -7 10 -16z m98 -19 c69
-36 104 -68 96 -88 -7 -19 -62 -32 -105 -23 -21 4 -31 1 -36 -9 -4 -12 -9 -13
-19 -4 -8 6 -14 17 -14 25 0 7 -7 17 -16 22 -15 8 -15 10 0 15 12 5 15 14 10
32 -5 19 -2 25 10 25 9 0 16 7 16 15 0 20 3 19 58 -10z m228 -157 c185 -169
195 -181 157 -195 -33 -12 -42 -37 -17 -47 9 -3 25 4 39 18 l24 25 27 -32 c42
-50 49 -73 30 -92 -19 -19 -21 -35 -5 -35 6 0 8 -7 5 -16 -4 -10 1 -22 11 -29
13 -9 17 -29 17 -84 1 -72 1 -73 -38 -109 -22 -19 -41 -31 -43 -25 -3 7 -14 6
-34 -4 -29 -14 -31 -14 -45 6 -20 27 -34 18 -34 -21 0 -27 -3 -30 -22 -24 -13
3 -33 6 -44 6 -13 0 -24 8 -27 20 -3 11 -1 20 5 20 6 0 8 7 4 15 -3 9 0 15 9
15 9 0 23 9 32 20 10 11 22 20 28 20 5 0 21 9 34 19 30 23 13 36 -24 19 -21
-9 -31 -9 -48 2 -12 7 -39 13 -59 11 -32 -1 -38 1 -38 19 0 11 5 20 10 20 12
0 17 4 70 50 l34 30 -33 0 c-35 0 -40 22 -5 29 27 5 54 31 54 52 0 21 -16 33
-25 19 -4 -6 -15 -8 -26 -5 -13 4 -21 1 -26 -11 -5 -14 -8 -14 -25 7 l-20 24
6 -32 c5 -30 4 -32 -25 -31 -17 1 -28 6 -26 12 3 6 10 10 16 9 6 -2 11 0 12 5
11 82 9 90 -25 110 -23 14 -38 17 -49 10 -14 -7 -17 -4 -19 24 -1 18 -1 43 0
56 1 19 -4 22 -34 22 -46 0 -41 18 12 45 21 11 46 24 54 30 8 5 23 8 33 7 14
-3 17 1 11 22 -10 41 17 32 82 -26z m282 -116 c2 -7 -2 -10 -12 -6 -9 3 -16
11 -16 16 0 13 23 5 28 -10z m94 -87 c34 -39 18 -50 -17 -11 -19 21 -35 43
-35 48 0 12 26 -7 52 -37z m-479 -114 c5 -20 -17 -49 -26 -34 -8 12 4 64 13
58 4 -3 10 -14 13 -24z m86 -68 c-1 -17 -83 -73 -105 -73 -13 0 -24 3 -24 7 0
16 46 53 66 53 13 0 26 5 29 10 7 12 35 14 34 3z m383 -60 c9 -10 19 -38 23
-63 4 -28 16 -53 30 -65 29 -25 40 -79 20 -95 -9 -7 -30 -16 -48 -19 -25 -6
-31 -12 -29 -27 3 -24 -22 -49 -38 -39 -12 7 -13 45 -2 61 4 6 15 13 25 17 9
3 17 16 17 27 0 12 -4 18 -10 15 -6 -4 -18 -1 -26 6 -8 7 -14 8 -13 3 4 -18
-13 -64 -22 -58 -11 7 0 56 15 67 6 4 28 4 50 1 35 -6 38 -5 31 15 -3 12 -17
33 -30 46 -33 36 -48 125 -22 125 8 0 21 -8 29 -17z m-511 -156 c-13 -13 -26
-3 -16 12 3 6 11 8 17 5 6 -4 6 -10 -1 -17z m459 -191 c0 -19 -27 -28 -33 -11
-7 15 1 25 20 25 7 0 13 -6 13 -14z m-1445 -81 c13 -31 42 -113 65 -183 63
-198 69 -212 97 -223 34 -13 92 14 169 79 109 91 248 191 283 203 30 10 36 9
57 -12 13 -13 43 -65 67 -114 54 -110 90 -155 123 -155 37 0 131 64 206 141
39 40 76 69 88 69 25 0 81 -50 156 -140 32 -38 66 -73 77 -76 28 -9 81 52 163
185 55 89 77 116 93 116 29 0 168 -104 181 -135 49 -123 110 -532 110 -739 0
-41 7 -113 16 -160 21 -113 14 -187 -35 -382 -50 -197 -63 -228 -128 -314
-126 -166 -183 -230 -232 -258 -28 -16 -31 -16 -31 -2 0 9 13 43 30 77 51 103
38 116 -30 31 -85 -106 -206 -234 -256 -269 -93 -67 -202 -109 -414 -160 -194
-46 -234 -49 -452 -35 -174 11 -240 20 -328 46 -25 7 -74 21 -110 30 -36 10
-120 44 -188 77 -106 50 -133 68 -196 131 -120 119 -187 226 -298 477 -86 193
-98 240 -98 392 0 201 36 409 116 678 49 162 60 189 89 215 32 30 147 126 318
266 48 39 87 75 87 80 0 9 158 117 173 118 4 1 18 -24 32 -54z"/>
<path d="M2090 5005 c-12 -33 -6 -45 24 -45 51 0 63 62 13 68 -21 3 -29 -2
-37 -23z"/>
<path d="M1516 4734 c-12 -12 -13 -20 -6 -35 15 -27 48 -24 56 5 11 44 -19 62
-50 30z"/>
<path d="M2230 3850 c0 -5 9 -10 20 -10 11 0 20 5 20 10 0 6 -9 10 -20 10 -11
0 -20 -4 -20 -10z"/>
<path d="M2425 3680 c-3 -5 -1 -10 4 -10 6 0 11 5 11 10 0 6 -2 10 -4 10 -3 0
-8 -4 -11 -10z"/>
<path d="M878 5889 c-19 -11 -24 -44 -9 -54 6 -3 43 -10 83 -15 60 -7 76 -6
88 6 13 13 12 17 -9 33 -14 11 -41 21 -60 24 -20 3 -45 8 -56 11 -11 3 -28 1
-37 -5z"/>
<path d="M981 5746 c-34 -15 -24 -48 20 -65 16 -5 63 -7 115 -3 69 6 89 10 89
22 0 27 -183 64 -224 46z"/>
</g>
</svg>
