<?xml version="1.0" standalone="no"?>
<!DOCTYPE svg PUBLIC "-//W3C//DTD SVG 20010904//EN"
 "http://www.w3.org/TR/2001/REC-SVG-20010904/DTD/svg10.dtd">
<svg version="1.0" xmlns="http://www.w3.org/2000/svg"
 width="363.000000pt" height="686.000000pt" viewBox="0 0 363.000000 686.000000"
 preserveAspectRatio="xMidYMid meet">

<g transform="translate(0.000000,686.000000) scale(0.100000,-0.100000)"
fill="#000000" stroke="none">
<path d="M2133 6571 c-70 -18 -138 -81 -149 -137 -8 -41 3 -94 15 -75 6 9 10
5 15 -13 4 -17 11 -24 19 -21 7 4 3 -1 -7 -9 -33 -27 -6 -37 96 -39 111 -2
137 8 172 67 54 95 55 156 1 206 -27 26 -104 36 -162 21z m77 -41 c44 -44 8
-178 -52 -195 -13 -3 -33 -11 -45 -17 -12 -6 -30 -7 -40 -3 -11 5 -13 9 -6 12
7 3 0 15 -19 32 -27 24 -30 32 -24 62 4 23 21 50 49 76 57 56 103 67 137 33z
m47 -52 c-3 -8 -6 -5 -6 6 -1 11 2 17 5 13 3 -3 4 -12 1 -19z m9 -113 c-10
-19 -24 -36 -32 -39 -7 -3 -2 11 12 31 13 20 24 40 24 46 0 6 3 7 7 3 4 -4 -1
-22 -11 -41z"/>
<path d="M1901 6115 c-18 -25 -29 -45 -24 -45 4 0 14 10 22 23 8 12 21 32 29
45 26 40 6 23 -27 -23z"/>
<path d="M1619 5916 c-60 -21 -125 -75 -152 -124 -21 -39 -24 -54 -18 -92 4
-25 15 -60 24 -77 19 -35 81 -73 121 -73 45 0 137 42 161 74 29 39 65 128 65
163 0 33 -21 93 -33 93 -4 0 -5 4 -2 10 4 6 -2 7 -17 1 -13 -4 -29 -6 -35 -4
-7 3 -13 0 -13 -6 0 -6 6 -11 13 -11 26 -1 57 -39 63 -78 6 -36 3 -44 -22 -69
-16 -15 -29 -32 -29 -38 0 -5 -21 -11 -46 -13 -33 -2 -50 2 -60 14 -13 15 -11
16 11 9 20 -6 18 -3 -10 17 -46 31 -68 93 -48 135 12 26 26 33 93 49 27 7 27
8 8 11 -13 3 -23 9 -23 14 0 12 -7 11 -51 -5z m-5 -238 c33 -26 13 -31 -24 -5
-27 17 -35 30 -38 60 -6 68 9 78 26 17 9 -30 25 -62 36 -72z m-119 29 c0 -24
4 -32 18 -32 10 0 21 -6 26 -13 4 -7 31 -28 60 -46 30 -20 48 -37 41 -41 -22
-13 -70 7 -104 46 -20 21 -36 33 -37 27 0 -7 -4 -4 -9 7 -11 25 -13 101 -2 91
4 -4 7 -22 7 -39z m235 -92 c-23 -24 -50 -33 -50 -17 0 7 46 34 69 41 3 0 -6
-10 -19 -24z"/>
<path d="M1688 5923 c7 -3 16 -2 19 1 4 3 -2 6 -13 5 -11 0 -14 -3 -6 -6z"/>
<path d="M2314 5459 c-4 -7 -7 -50 -5 -96 1 -45 -3 -92 -9 -103 -10 -19 -12
-19 -41 -4 -17 8 -33 13 -36 11 -2 -3 5 -8 17 -12 11 -4 35 -21 53 -38 l31
-31 6 25 6 24 6 -22 c3 -13 2 -26 -3 -29 -5 -3 -9 -42 -9 -87 0 -150 -55 -225
-221 -302 -34 -15 -63 -22 -83 -19 -23 4 -12 -5 39 -31 38 -20 72 -40 75 -44
3 -5 14 -10 25 -12 18 -4 16 -7 -12 -27 -109 -77 -253 -127 -253 -87 0 12 -7
15 -33 10 -24 -5 -41 -1 -67 17 -40 27 -118 138 -127 180 -3 15 -10 28 -15 28
-30 0 63 -164 125 -222 20 -17 27 -31 21 -40 -6 -10 -4 -10 10 1 15 12 19 12
26 1 22 -36 293 12 330 59 11 14 94 70 98 67 6 -7 -53 -88 -82 -113 -27 -24
-39 -56 -13 -34 8 6 17 7 21 3 4 -4 6 -2 4 3 -2 6 6 19 17 31 11 11 29 36 40
55 11 18 33 54 48 79 36 57 54 98 62 136 3 17 -8 1 -27 -38 -23 -46 -48 -79
-82 -107 -28 -22 -52 -38 -54 -36 -3 2 -21 -8 -41 -24 -45 -35 -75 -51 -97
-51 -11 0 -3 9 20 25 20 14 41 25 46 25 5 0 24 14 42 30 18 17 36 30 40 30 10
0 53 47 84 92 14 20 32 66 41 102 8 36 18 66 21 66 13 0 13 251 1 266 -9 11
-8 14 5 14 9 0 16 4 16 9 0 9 77 41 99 41 11 0 11 -3 1 -15 -6 -8 -15 -14 -18
-13 -4 0 -18 0 -32 -1 -19 -1 -22 -4 -11 -10 8 -5 24 -6 35 -2 12 5 28 6 36 4
11 -3 12 -2 2 4 -20 15 25 56 54 50 13 -2 24 0 24 4 0 14 -111 10 -152 -5 -21
-7 -39 -11 -42 -9 -7 8 20 52 58 94 20 23 36 43 36 45 0 15 -58 -38 -81 -74
l-27 -43 -11 51 c-6 28 -11 59 -11 68 0 9 -4 23 -9 31 -7 11 -10 11 -17 0z
m26 -126 c0 -30 -9 -27 -15 6 -2 11 0 21 6 21 5 0 9 -12 9 -27z m-28 -475 c-9
-61 -100 -169 -126 -150 -6 5 -32 16 -59 26 -26 10 -45 21 -42 26 9 15 145 81
155 75 5 -3 14 4 20 15 6 12 21 25 33 30 12 5 22 9 23 9 0 1 -2 -14 -4 -31z"/>
<path d="M1941 5371 c-18 -11 -4 -72 18 -79 10 -3 12 1 9 14 -14 49 -14 49 20
46 18 -1 54 -13 80 -26 26 -13 61 -27 77 -30 34 -7 -96 60 -135 69 -14 3 -32
8 -40 10 -8 3 -21 1 -29 -4z"/>
<path d="M1320 5340 c-6 -11 -8 -20 -6 -20 3 0 10 9 16 20 6 11 8 20 6 20 -3
0 -10 -9 -16 -20z"/>
<path d="M1900 5290 c0 -5 4 -10 9 -10 6 0 13 5 16 10 3 6 -1 10 -9 10 -9 0
-16 -4 -16 -10z"/>
<path d="M2387 5157 c7 -11 6 -197 -2 -292 -2 -22 -16 -67 -31 -100 -38 -81
-38 -84 -15 -56 l21 23 0 -26 c0 -26 -9 -37 -75 -92 -22 -19 -26 -27 -16 -31
10 -4 4 -11 -20 -24 -28 -15 -30 -18 -12 -19 17 0 20 -5 16 -22 -4 -20 -3 -21
7 -5 6 9 20 17 30 17 11 0 20 6 20 14 0 8 24 40 54 72 l53 57 31 -22 c68 -48
160 -74 287 -80 106 -5 122 -4 140 12 11 10 59 44 106 75 148 97 234 224 246
362 l5 55 -50 -98 c-58 -114 -77 -137 -148 -178 -72 -41 -88 -39 -80 9 3 20 9
63 13 95 3 31 9 57 13 57 6 0 -2 89 -14 150 -2 14 -5 31 -5 38 -1 6 -7 12 -15
12 -9 0 -16 -19 -20 -60 -10 -86 -31 -147 -74 -212 -20 -31 -42 -65 -48 -75
-11 -17 -14 -17 -96 5 -47 12 -104 22 -127 22 -46 0 -47 0 -26 40 15 29 11 60
-8 60 -6 0 -21 -9 -33 -21 l-22 -21 -10 49 c-16 74 -71 211 -88 217 -10 4 -13
2 -7 -7z m53 -141 c13 -65 9 -119 -12 -140 -12 -11 -14 -4 -14 48 1 33 -3 93
-7 131 -7 64 -7 68 6 45 8 -14 20 -52 27 -84z m512 -139 c-7 -56 -16 -105 -21
-110 -6 -6 -30 -4 -60 4 -59 15 -66 35 -25 68 15 12 24 21 20 21 -4 0 1 14 11
30 9 17 20 30 23 30 3 0 14 23 25 50 18 46 21 49 29 30 6 -14 5 -58 -2 -123z
m208 -22 c0 -23 -116 -145 -173 -181 -29 -19 -83 -45 -121 -60 -61 -24 -78
-26 -155 -21 -103 6 -171 29 -211 69 -37 37 -39 76 -5 117 35 41 110 51 201
26 35 -9 64 -21 64 -26 0 -5 12 -9 26 -9 14 0 34 -5 44 -10 11 -6 45 -13 77
-16 53 -6 64 -3 131 31 40 21 83 51 95 66 26 33 27 33 27 14z m-730 -46 c-12
-41 -24 -53 -14 -14 7 32 13 45 19 45 2 0 0 -14 -5 -31z"/>
<path d="M1098 5136 c-52 -19 -116 -72 -138 -117 -41 -80 -13 -217 42 -204 13
3 37 1 53 -5 26 -8 24 -9 -15 -4 -35 5 -42 3 -34 -6 13 -13 101 -16 137 -4 27
8 77 56 111 108 21 31 26 51 26 101 0 71 -18 102 -74 129 -40 19 -59 19 -108
2z m123 -37 c34 -24 37 -52 13 -115 -11 -29 -27 -48 -52 -62 -34 -19 -40 -19
-77 -6 -22 7 -41 14 -42 14 -10 0 -50 80 -49 95 5 76 138 123 207 74z m-211
-131 c0 -19 -2 -20 -10 -8 -13 19 -13 30 0 30 6 0 10 -10 10 -22z m250 -26 c0
-11 -39 -47 -44 -41 -9 9 15 49 29 49 8 0 15 -4 15 -8z"/>
<path d="M1660 5035 c0 -25 4 -35 16 -35 11 0 14 5 10 16 -3 9 -6 24 -6 35 0
10 -4 19 -10 19 -5 0 -10 -16 -10 -35z"/>
<path d="M1646 4968 c-7 -29 -6 -96 2 -126 4 -13 7 15 7 62 0 47 -1 86 -1 86
-1 0 -4 -10 -8 -22z"/>
<path d="M1690 4988 c0 -12 24 -61 53 -108 41 -66 207 -204 207 -173 0 5 -15
16 -33 26 -46 25 -156 142 -194 207 -18 30 -32 52 -33 48z"/>
<path d="M2404 4607 c-10 -26 32 -175 59 -210 18 -23 39 -36 74 -45 74 -19
141 3 217 73 49 44 36 46 -18 2 -44 -36 -122 -67 -168 -67 -51 0 -85 44 -118
154 -33 110 -37 116 -46 93z"/>
<path d="M1699 4583 c-13 -16 -12 -17 4 -4 9 7 17 15 17 17 0 8 -8 3 -21 -13z"/>
<path d="M1613 4511 c-62 -56 -73 -71 -53 -71 6 0 23 -11 38 -25 31 -29 121
-65 160 -64 l27 0 -22 16 c-13 8 -24 25 -24 37 -1 17 -2 17 -6 4 -5 -21 -43
-24 -76 -7 -27 14 -67 50 -67 60 0 3 21 27 47 52 68 67 49 65 -24 -2z"/>
<path d="M1777 4533 c-4 -3 -7 -11 -7 -17 0 -6 5 -5 12 2 6 6 9 14 7 17 -3 3
-9 2 -12 -2z"/>
<path d="M2826 4523 c-6 -14 -5 -15 5 -6 7 7 10 15 7 18 -3 3 -9 -2 -12 -12z"/>
<path d="M1752 4475 c-17 -37 -14 -45 4 -12 9 16 14 31 11 33 -2 2 -9 -7 -15
-21z"/>
<path d="M2290 4490 c-9 -6 -10 -10 -3 -10 6 0 15 5 18 10 8 12 4 12 -15 0z"/>
<path d="M1515 4399 c-4 -6 -5 -12 -2 -15 2 -3 7 2 10 11 7 17 1 20 -8 4z"/>
<path d="M1467 4348 c-38 -50 -85 -139 -123 -230 -19 -45 -34 -85 -34 -88 0
-11 40 56 40 67 0 22 73 167 116 228 29 42 36 55 30 55 -3 0 -16 -15 -29 -32z"/>
<path d="M1773 4324 c11 -37 27 -130 30 -169 3 -30 4 -26 5 17 2 64 -14 155
-30 164 -6 4 -8 -1 -5 -12z"/>
<path d="M515 4227 c-25 -21 -26 -23 -11 -52 9 -17 16 -24 16 -16 0 10 8 7 26
-10 32 -30 54 -71 54 -101 -1 -22 -1 -22 -16 5 -26 48 -24 29 5 -35 15 -35 36
-92 46 -128 31 -115 93 -207 150 -223 85 -25 333 -127 363 -151 8 -6 11 -19 7
-34 -3 -14 -8 -71 -11 -126 -5 -123 -9 -147 -40 -260 -27 -94 -27 -125 -1 -54
31 88 57 227 62 333 3 60 9 113 14 118 5 5 31 3 64 -7 80 -23 161 -21 208 6
42 23 47 33 25 41 -8 3 -27 -6 -41 -21 -25 -25 -34 -27 -96 -25 -45 1 -85 9
-112 22 -47 22 -256 108 -302 124 -16 6 -49 17 -72 25 -24 8 -43 18 -43 22 0
5 -16 17 -34 28 -68 40 -100 103 -136 262 -21 97 -31 121 -76 176 -47 57 -53
74 -29 74 8 0 15 7 15 15 0 20 -4 19 -35 -8z"/>
<path d="M576 4223 c31 -6 48 -29 73 -96 34 -94 56 -130 109 -179 48 -45 122
-74 129 -52 21 64 89 123 140 124 34 0 37 -17 6 -34 -17 -9 -22 -15 -12 -16
20 0 49 31 49 53 0 22 -34 22 -85 -2 -39 -17 -70 -47 -106 -101 l-17 -25 -38
20 c-75 39 -115 94 -160 220 -18 50 -61 95 -88 94 -20 -2 -20 -2 0 -6z"/>
<path d="M520 4136 c0 -2 8 -10 18 -17 15 -13 16 -12 3 4 -13 16 -21 21 -21
13z"/>
<path d="M1812 4065 c0 -16 2 -22 5 -12 2 9 2 23 0 30 -3 6 -5 -1 -5 -18z"/>
<path d="M1576 4015 c-21 -19 -54 -39 -73 -46 -19 -6 -62 -28 -96 -49 -48 -29
-66 -35 -80 -28 -17 8 -18 7 -12 -14 4 -12 13 -30 20 -38 8 -8 26 -42 42 -75
16 -33 45 -85 65 -115 90 -140 126 -197 142 -228 21 -40 34 -37 63 13 11 21
51 71 88 112 37 41 65 77 62 80 -8 7 -172 -165 -172 -180 -1 -19 -16 -38 -26
-31 -5 3 -7 9 -4 13 6 11 -21 66 -60 121 -71 97 -175 281 -175 308 0 4 15 13
33 20 75 27 237 140 237 166 0 13 -16 4 -54 -29z"/>
<path d="M1822 3990 c0 -19 4 -48 8 -65 7 -27 8 -28 8 -5 1 14 -3 43 -7 65
l-9 40 0 -35z"/>
<path d="M1262 3905 c-43 -134 -40 -157 3 -30 19 55 33 107 32 115 -1 8 -17
-30 -35 -85z"/>
<path d="M969 3943 c-13 -16 -12 -17 4 -4 9 7 17 15 17 17 0 8 -8 3 -21 -13z"/>
<path d="M919 3893 c-13 -16 -12 -17 4 -4 9 7 17 15 17 17 0 8 -8 3 -21 -13z"/>
<path d="M1831 3863 c0 -17 7 -93 16 -170 9 -76 17 -190 18 -253 5 -335 5
-458 0 -472 -15 -39 -199 -88 -330 -88 -49 1 -121 5 -160 10 -38 5 -121 16
-184 25 -63 8 -118 20 -122 26 -5 8 -8 8 -13 0 -12 -18 2 -29 44 -36 25 -4 40
-12 40 -21 0 -17 3 -16 -38 -5 -17 5 -32 6 -32 2 0 -5 14 -12 32 -17 37 -11
64 -57 72 -124 3 -25 14 -87 26 -139 11 -52 20 -110 20 -128 0 -22 4 -32 11
-28 6 4 10 1 8 -6 -3 -29 1 -50 11 -44 9 6 14 -10 13 -42 -1 -7 3 -13 9 -13 5
0 7 -4 4 -9 -3 -5 0 -14 8 -20 31 -26 50 -158 30 -211 -7 -19 -22 -60 -33 -90
-12 -30 -18 -63 -15 -74 4 -11 2 -16 -4 -12 -6 3 -14 1 -18 -5 -4 -8 -3 -9 4
-5 15 9 16 -18 2 -42 -18 -31 -90 -232 -90 -250 0 -10 13 -25 29 -35 40 -23
44 -21 16 8 -14 13 -25 28 -25 34 0 5 14 47 31 93 17 46 51 149 77 231 25 81
48 144 52 140 19 -23 57 -309 61 -453 2 -87 7 -109 20 -88 6 9 9 5 9 -14 0
-22 -4 -25 -21 -21 -19 5 -19 4 5 -21 22 -25 27 -64 5 -50 -5 3 -9 -25 -9 -63
-1 -121 -26 -272 -59 -350 -17 -40 -31 -78 -31 -86 0 -22 37 -42 126 -70 43
-14 79 -30 78 -36 -1 -6 -2 -35 -2 -65 l-2 -53 -72 -16 c-40 -9 -110 -21 -155
-27 -160 -21 -328 -82 -482 -178 -29 -17 152 -57 333 -73 177 -16 497 0 553
28 33 16 38 23 41 57 4 49 -32 161 -64 199 -13 15 -26 44 -30 65 -4 20 -11 45
-15 54 -13 24 13 35 101 48 96 14 125 29 102 56 -5 5 -19 43 -32 84 -44 146
-72 225 -98 275 -28 54 -36 152 -14 178 7 8 9 16 6 19 -5 6 15 258 22 269 2 3
29 -2 60 -13 68 -23 268 -35 332 -20 l43 10 -2 -71 c-2 -67 -31 -205 -57 -269
-12 -30 -30 -36 -50 -16 -6 6 -14 9 -17 6 -3 -2 11 -26 30 -51 28 -37 42 -47
65 -47 34 0 57 29 38 48 -9 9 -9 12 -1 12 7 0 19 26 28 58 l17 59 35 -6 c44
-7 46 -15 32 -140 -10 -91 -29 -160 -54 -191 -6 -8 -22 -47 -35 -87 -20 -58
-22 -76 -13 -96 10 -21 18 -25 52 -24 27 1 41 -2 41 -10 0 -33 19 -3 67 101
60 132 197 593 187 632 -5 21 -12 24 -55 24 -27 0 -49 -4 -49 -10 0 -10 8 -12
62 -13 24 -1 26 -4 20 -36 -3 -19 -11 -46 -19 -61 -7 -14 -13 -35 -13 -47 0
-12 -4 -32 -9 -45 -5 -13 -26 -76 -47 -140 -20 -65 -41 -118 -45 -118 -28 0
-34 202 -9 290 16 56 13 72 -11 65 -22 -7 -116 29 -131 50 -4 5 -8 44 -8 85 0
95 -15 150 -39 150 -10 0 -44 -11 -75 -25 -63 -28 -220 -51 -292 -42 -63 7
-84 28 -73 75 10 46 19 98 25 136 2 16 12 55 23 86 11 32 22 73 25 92 2 18 7
44 10 58 3 14 13 66 22 115 8 50 19 106 24 125 14 52 29 191 36 315 5 92 9
112 25 124 23 16 25 31 3 31 -11 0 -13 6 -9 19 3 11 1 22 -5 26 -8 5 -11 43
-10 114 3 143 -7 498 -14 509 -3 5 -11 52 -17 103 -21 166 -26 197 -28 162z
m49 -1007 c0 -49 -4 -77 -13 -85 -8 -6 -16 -9 -18 -6 -3 2 -24 8 -47 14 -32 7
-42 6 -39 -2 2 -7 0 -25 -5 -42 -10 -36 8 -173 26 -190 7 -7 21 -15 33 -19 18
-6 19 -11 11 -54 -30 -151 -105 -412 -118 -412 -8 0 -26 -95 -22 -113 3 -10
-24 -183 -43 -282 -21 -109 -30 -306 -13 -303 7 2 17 -20 24 -57 7 -33 17 -76
23 -95 5 -19 14 -51 19 -70 15 -55 34 -104 43 -114 15 -17 10 -53 -8 -60 -9
-4 -20 -1 -25 6 -6 10 -8 8 -8 -4 0 -10 -3 -18 -7 -19 -5 0 -15 -2 -24 -4 -9
-1 -22 1 -28 5 -12 7 -32 122 -35 197 0 17 -4 29 -8 26 -5 -2 -8 7 -8 21 0 16
-6 26 -15 26 -12 0 -15 -15 -15 -77 0 -44 4 -72 8 -65 6 9 12 6 20 -12 6 -14
8 -28 3 -30 -5 -3 -7 -26 -5 -51 l3 -45 -42 0 c-23 0 -49 4 -57 10 -8 5 -19 5
-25 1 -5 -4 -34 -5 -63 -2 l-53 6 22 40 c12 22 28 54 37 70 8 17 18 32 21 35
13 11 30 60 36 106 3 27 11 59 18 72 9 18 8 25 -2 31 -9 6 -14 39 -16 102 -4
89 -32 346 -40 359 -5 8 -25 161 -31 230 -6 87 -20 148 -49 225 -95 246 -155
459 -174 611 l-7 64 25 0 c14 0 63 -7 108 -14 45 -8 120 -18 168 -22 82 -6 85
-8 82 -30 -2 -13 -5 -26 -8 -29 -11 -10 10 -255 21 -255 5 0 7 15 5 33 -10 77
-7 217 6 246 12 26 21 31 74 40 34 6 71 11 82 11 11 0 23 3 26 7 8 8 96 40
115 42 8 1 12 -20 12 -73z m-20 -172 c0 -9 -11 -14 -30 -14 -22 0 -30 5 -30
18 0 15 6 18 30 14 17 -2 30 -10 30 -18z m-21 -48 c12 -14 5 -73 -10 -82 -10
-6 -16 7 -23 50 -8 44 9 61 33 32z m298 -833 c-9 -9 -20 -13 -24 -9 -4 4 -1
11 7 16 25 16 35 11 17 -7z m9 -31 c-9 -15 -117 -34 -153 -27 -19 3 -33 8 -30
11 16 16 193 32 183 16z m134 -217 c12 -7 14 -62 2 -69 -14 -9 -52 6 -45 17 4
6 0 8 -10 4 -14 -5 -17 0 -17 33 0 38 0 38 30 30 16 -5 34 -11 40 -15z m-115
-32 c-9 -37 -18 -20 -9 19 4 18 9 27 11 20 3 -7 2 -24 -2 -39z m-11 -55 c-4
-13 -13 -43 -19 -67 -7 -25 -18 -47 -25 -49 -13 -5 -6 33 10 53 5 6 11 27 15
48 4 20 12 37 17 37 5 0 6 -10 2 -22z m146 -267 c0 -6 -4 -13 -10 -16 -5 -3
-10 1 -10 9 0 9 5 16 10 16 6 0 10 -4 10 -9z m24 -80 c7 -10 -12 -70 -28 -90
-5 -7 -11 -20 -12 -28 -6 -36 -14 -22 -14 21 0 42 -2 48 -19 43 -14 -3 -17 0
-14 14 6 22 21 35 48 42 32 8 34 7 39 -2z m-723 -298 c0 -16 2 -36 4 -46 3
-16 -21 -37 -42 -37 -5 0 -10 17 -11 38 -2 20 -5 45 -8 55 -4 14 1 17 25 17
27 0 31 -4 32 -27z m-3 -170 c70 -6 73 -7 88 -39 25 -53 16 -74 -41 -94 -106
-38 -166 -45 -355 -43 -279 2 -360 16 -344 58 9 21 163 82 255 100 172 34 195
35 397 18z m-673 -173 c3 -5 -1 -10 -9 -10 -8 0 -18 5 -21 10 -3 6 1 10 9 10
8 0 18 -4 21 -10z"/>
<path d="M1257 2721 c-24 -9 -22 -18 22 -71 20 -25 54 -69 76 -97 21 -29 43
-53 48 -53 4 0 5 4 2 10 -3 5 0 7 9 4 8 -3 17 -12 20 -21 4 -11 2 -13 -9 -9
-13 4 -14 2 -5 -14 11 -20 44 -27 54 -12 3 5 -27 44 -66 88 -39 43 -82 94 -96
113 -24 31 -25 34 -9 46 9 7 17 15 17 19 0 8 -40 7 -63 -3z"/>
<path d="M1563 2500 c0 -25 2 -35 4 -22 2 12 2 32 0 45 -2 12 -4 2 -4 -23z"/>
<path d="M1561 2434 c0 -11 3 -14 6 -6 3 7 2 16 -1 19 -3 4 -6 -2 -5 -13z"/>
<path d="M1573 2350 c0 -30 2 -43 4 -27 2 15 2 39 0 55 -2 15 -4 2 -4 -28z"/>
<path d="M1583 2225 c0 -38 2 -53 4 -32 2 20 2 52 0 70 -2 17 -4 1 -4 -38z"/>
<path d="M1593 2085 c0 -22 2 -30 4 -17 2 12 2 30 0 40 -3 9 -5 -1 -4 -23z"/>
<path d="M1589 2028 c0 -7 -2 -51 -4 -98 -2 -47 -7 -107 -10 -135 -4 -34 -3
-47 4 -40 11 11 28 285 18 285 -4 0 -7 -6 -8 -12z"/>
<path d="M1566 1717 c-7 -31 -6 -490 2 -482 11 11 13 40 15 268 2 213 -2 271
-17 214z"/>
<path d="M1420 1070 c0 -5 5 -10 11 -10 5 0 7 5 4 10 -3 6 -8 10 -11 10 -2 0
-4 -4 -4 -10z"/>
<path d="M865 3771 c-27 -45 167 -111 408 -138 48 -5 137 12 137 27 0 4 -19 7
-43 6 -23 -1 -72 1 -107 4 -36 4 -74 4 -85 0 -26 -9 -211 35 -231 55 -9 8 -19
15 -24 15 -5 0 -18 9 -29 21 -12 13 -21 17 -26 10z"/>
<path d="M1275 1552 c6 -5 21 -13 35 -17 17 -5 22 -4 15 3 -5 5 -21 13 -35 17
-17 5 -22 4 -15 -3z"/>
</g>
</svg>
